<?xml version="1.0" encoding="utf-8"?>
<!-- Generator: Adobe Illustrator 21.0.0, SVG Export Plug-In . SVG Version: 6.00 Build 0)  -->
<svg version="1.1" id="Shape_1_1_" xmlns="http://www.w3.org/2000/svg" xmlns:xlink="http://www.w3.org/1999/xlink" x="0px" y="0px"
	 viewBox="0 0 800 800" style="enable-background:new 0 0 800 800;" xml:space="preserve">
<style type="text/css">
	.st0{fill-rule:evenodd;clip-rule:evenodd;fill:#C23333;}
</style>
<g id="Shape_1">
	<g>
		<path class="st0" d="M476.5,273.6c-7.8-7.8-20.4-7.8-28.2,0c-7.8,7.8-7.8,20.4,0,28.2l78.3,78.3H227.3c-11.1,0-20.1,9-20.1,20.1
			c0,11.1,9,19.9,20.1,19.9h299.2l-78.3,78.3c-7.8,7.8-7.8,20.4,0,28.2c3.9,3.9,9,5.9,14.2,5.9c5.2,0,10.3-2,14.2-5.9l112.4-112.4
			c7.8-7.8,7.8-20.4,0-28.2L476.5,273.6z M401,0C180.4,0,1,179.4,1,400s179.4,400,400,400c211,0,384.4-164.3,399-371.7v-56.6
			C785.4,164.3,612,0,401,0z M401,760C202.5,760,41,598.5,41,400C41,201.5,202.5,40,401,40c198.5,0,360,161.5,360,360
			C761,598.5,599.5,760,401,760z"/>
	</g>
</g>
</svg>
