<?xml version="1.0" encoding="utf-8"?>
<!-- Generator: Adobe Illustrator 21.0.0, SVG Export Plug-In . SVG Version: 6.00 Build 0)  -->
<svg version="1.1" id="Shape_1_1_" xmlns="http://www.w3.org/2000/svg" xmlns:xlink="http://www.w3.org/1999/xlink" x="0px" y="0px"
	 viewBox="0 0 620 766" style="enable-background:new 0 0 620 766;" xml:space="preserve">
<style type="text/css">
	.st0{fill-rule:evenodd;clip-rule:evenodd;fill:#F1F1F1;}
</style>
<g id="Shape_1">
	<g>
		<path class="st0" d="M620,129.2C607.6,55.3,478.9,1,311,1C134.3,1,1,61.2,1,141v485.8C1,700.7,115.1,757.9,272.2,766h77.7
			c148.6-7.7,258.7-59.1,270.1-127.4V129.2z M582.7,626.6c0,48.3-111.6,101.9-271.7,101.9S39.3,674.9,39.3,626.6v-92.4
			C91.2,577.1,191,604.9,311,604.9s220-27.8,271.7-70.6V626.6z M582.7,464.9c0,48.1-111.6,101.9-271.7,101.9S39.3,513.2,39.3,464.9
			v-92.4C91.2,415.3,191,443.2,311,443.2s220-27.8,271.7-70.6V464.9z M582.7,303c0,48.1-111.6,101.9-271.7,101.9
			S39.3,351.3,39.3,303v-92.4C91.2,253.4,191,281.2,311,281.2s220-27.8,271.7-70.6V303z M311,243.1c-160.2,0-271.7-53.6-271.7-101.9
			C39.3,92.9,150.8,39.3,311,39.3s271.7,53.6,271.7,101.9C582.7,189.5,471.2,243.1,311,243.1z"/>
	</g>
</g>
</svg>
