<?xml version="1.0" encoding="utf-8"?>
<!-- Generator: Adobe Illustrator 21.0.0, SVG Export Plug-In . SVG Version: 6.00 Build 0)  -->
<svg version="1.1" id="Shape_1_1_" xmlns="http://www.w3.org/2000/svg" xmlns:xlink="http://www.w3.org/1999/xlink" x="0px" y="0px"
	 viewBox="0 0 665 800" style="enable-background:new 0 0 665 800;" xml:space="preserve">
<style type="text/css">
	.st0{fill:#666666;}
</style>
<g id="Shape_1">
	<g>
		<path class="st0" d="M252.2,397.9c2.4,1,5,1.9,7.5,2.8l5.3,1.9c2,0.8,4.1,1.5,6.2,2.2c19.4,6.1,39.6,9.2,60.2,9.4h1.6
			c7.1,0,14.1-0.4,20.9-1.1c2.3-0.2,4.6-0.6,6.9-1l5.1-0.8c2.9-0.4,5.7-0.8,8.7-1.4c2-0.4,4-1,6-1.5l5.6-1.4
			c2.7-0.7,5.5-1.3,8.2-2.2c1.7-0.5,3.3-1.2,5-1.8l4.5-1.6c3.2-1.1,6.4-2.2,9.6-3.6c1.3-0.5,2.5-1.1,3.7-1.7l1.4-0.7
			c4.4-2,8.8-4,13.1-6.3l2.8-1.7c4.9-2.8,9.7-5.6,14.6-9c2.5-1.7,5-3.7,7.4-5.6l8.3-6.5c47.8-39.5,75.3-97.6,75.3-157.8l0.1-1.7
			C540.2,92.9,447.2,0,333,0C223.9,0,133.1,85.2,126.3,194.1l-0.2,2.7c-0.3,3.4-0.5,6.8-0.5,10.4
			C125.6,290.5,175.3,365.4,252.2,397.9z M158.5,199l0.2-2.9c5.7-91.8,82.2-163.6,174.2-163.6c96.4,0,174.8,78.4,174.9,173.2
			l-0.1,1.7c-0.1,52-23.3,100.9-63.8,134.5l-7.7,5.9c-1.7,1.4-3.5,2.8-5.6,4.3c-3.9,2.6-8,5-12.2,7.4l-2.3,1.4
			c-3.5,1.9-7.2,3.6-11,5.3l-4.3,2.1c-2.5,1-5.1,1.9-7.6,2.8l-5.4,1.9c-1,0.4-2.1,0.8-3.1,1.1c-2,0.6-4,1.1-6.1,1.6l-6.5,1.7
			c-1.4,0.4-2.8,0.8-4,1c-2.2,0.4-4.4,0.7-6.6,1l-6.2,0.9c-1.5,0.3-3,0.5-4.7,0.7c-5.4,0.6-10.8,0.9-16.4,0.9h-1.5l0,0
			c-17.8,0-35.2-2.7-51.9-7.9c-1.4-0.5-2.9-1-4.3-1.6l-6.1-2.2c-1.9-0.7-3.8-1.3-5.6-2.1c-64.8-27.4-106.7-90.6-106.7-160.9
			C158.1,204.4,158.3,201.7,158.5,199z M471.2,469.3l-2-0.9c-4.9-2.2-9.8-4.3-14.8-6.3c-5.5-2.2-11-4.2-16.7-6.1
			c-4.5-1.5-8.9-2.8-13.5-4.2c-6.9-2-13.9-3.8-21-5.4c-2.4-0.5-4.9-1-7.4-1.4l-1.7-0.3c-4.2-0.8-8.5-1.6-12.8-2.2l-1.2-0.2H380
			l-1.2-0.2c-3.6-0.5-7.1-1-10.8-1.5l-12.6-1c-15.5-1-31.5-1-46.8,0.1l-4.5,0.4l-2.1,0.2l-5.2,0.5c-4.8,0.5-9.5,1.2-14.3,1.9
			l-1.4,0.2c-3.2,0.5-6.5,1.1-9.7,1.7c-3.6,0.6-7.1,1.3-10.6,2.1c-6.8,1.5-13.5,3.3-20.1,5.2c-5.2,1.5-10.3,3.1-15.2,4.8l-3.3,1.2
			c-10.2,3.6-20.4,7.8-30.2,12.3l-2.6,1.3v0.1C74.2,526.6,0,643.9,0,771.1c0,2.9,0.2,5.8,0.4,8.7L1.2,800h662.5l0.9-20
			c0.2-3,0.4-5.9,0.4-8.9C665,641.8,589,523.5,471.2,469.3z M32.5,767.5c1.4-114.3,69-219.1,172-267.3l3.3-1.3l0.4-0.4
			c8.1-3.7,16.4-7,24.8-10l2.7-1c4.6-1.6,9.2-3.1,13.9-4.4c5.9-1.7,12-3.3,18-4.7c3.1-0.7,6.3-1.3,9.5-1.9c2.6-0.5,5.1-1,7.7-1.4
			l1.3-0.2c4.6-0.7,9.3-1.4,14-1.9l10.6-0.9c13.9-1,27.2-1.2,43.3,0l10.3,0.9c2.5,0.3,5.1,0.6,8.2,1.1l3.7,0.5
			c3.9,0.6,7.8,1.2,11.7,2l1.8,0.3c2.2,0.4,4.4,0.8,6.4,1.3c6.4,1.4,12.7,3,18.9,4.9c4.1,1.2,8.2,2.4,12.2,3.8
			c5.1,1.7,10.1,3.5,15,5.5c4.8,1.9,9.4,3.9,14.1,6l0.8,0.4c105.6,48.2,174,153.3,175.4,268.7H32.5z"/>
	</g>
</g>
</svg>
