<?xml version="1.0" encoding="utf-8"?>
<!-- Generator: Adobe Illustrator 21.0.0, SVG Export Plug-In . SVG Version: 6.00 Build 0)  -->
<svg version="1.1" id="Forma_1_1_" xmlns="http://www.w3.org/2000/svg" xmlns:xlink="http://www.w3.org/1999/xlink" x="0px" y="0px"
	 viewBox="0 0 20.6 17.9" style="enable-background:new 0 0 20.6 17.9;" xml:space="preserve">
<style type="text/css">
	.st0{fill-rule:evenodd;clip-rule:evenodd;fill:#F1F1F1;}
</style>
<g id="Forma_1">
	<g>
		<path class="st0" d="M10.9,11.8c0.5,0,0.9-0.4,0.9-0.9c0-0.5-0.4-0.9-0.9-0.9l-4.1-3l3.2,4C10,11.4,10.4,11.8,10.9,11.8z M10.5,0
			C4.9,0,0.4,4.5,0.4,10.1c0,2.1,0.6,4,1.7,5.6h1.3l0,0l0,0h0c0,0,0,0,0,0l1.7-1.5l-0.8-1l-1.6,1.4c-0.8-1.3-1.2-2.9-1.2-4.5
			c0-0.1,0-0.2,0-0.2l2,0V8.6H1.6c0.3-1.6,0.9-3,1.9-4.2l1.4,1.4l0.9-0.9L4.4,3.5c1.4-1.3,3.2-2.1,5.2-2.3l0,2.3l1.3,0V1.1
			c2.2,0.1,4.3,1,5.8,2.5l-1.5,1.5L16.1,6l1.4-1.4c0.9,1.2,1.5,2.5,1.8,4l-2,0v1.3h2.1c0,0.1,0,0.2,0,0.2c0,1.6-0.4,3.2-1.2,4.5
			l-1.5-1.5L15.8,14l1.7,1.7c0,0,0,0,0,0h1.4c1.1-1.6,1.7-3.5,1.7-5.6C20.6,4.5,16.1,0,10.5,0z M5.9,18.6H15v-2.4H5.9V18.6z"/>
	</g>
</g>
</svg>
