<?xml version="1.0" encoding="utf-8"?>
<!-- Generator: Adobe Illustrator 21.0.0, SVG Export Plug-In . SVG Version: 6.00 Build 0)  -->
<svg version="1.1" id="Shape_1_1_" xmlns="http://www.w3.org/2000/svg" xmlns:xlink="http://www.w3.org/1999/xlink" x="0px" y="0px"
	 viewBox="0 0 800 788" style="enable-background:new 0 0 800 788;" xml:space="preserve">
<style type="text/css">
	.st0{fill-rule:evenodd;clip-rule:evenodd;}
</style>
<g id="Shape_1">
	<g>
		<path class="st0" d="M524.5,698.4c13,0,23.5-10.5,23.5-23.5V310.3c0-13-10.5-23.5-23.5-23.5S501,297.3,501,310.3v364.6
			C501,687.9,511.5,698.4,524.5,698.4z M395.1,698.4c13,0,23.5-10.5,23.5-23.5V310.3c0-13-10.5-23.5-23.5-23.5
			c-13,0-23.5,10.5-23.5,23.5v364.6C371.6,687.9,382.1,698.4,395.1,698.4z M265.7,698.4c13,0,23.5-10.5,23.5-23.5V310.3
			c0-13-10.5-23.5-23.5-23.5c-13,0-23.5,10.5-23.5,23.5v364.6C242.2,687.9,252.7,698.4,265.7,698.4z M736.3,105.9H595.1V75.7
			c0-41.3-22.5-75.7-61.7-75.7H274.6c-38.1,0-67.7,31.8-67.7,75.7v30.1H65.7C30,105.9,1,134.9,1,170.5c0,35.7,29,64.7,64.7,64.7H101
			v484.2c0,38.9,42.8,68.6,84.9,68.6h433.4c41.1,0,69.9-29,69.9-68.6V235.2h47.1c31.8,0,58.4-23.1,63.7-53.4v-22.5
			C794.7,129,768.1,105.9,736.3,105.9z M253.9,75.7c0-24.2,14.8-28.7,20.6-28.7h258.9c17.8,0,14.6,19.6,14.6,28.7v30.1H253.9V75.7z
			 M642.2,719.4c0,13.6-7.8,21.5-22.8,21.5H185.9c-15.8,0-37.9-8.6-37.9-21.5V235.2h494.1V719.4z M736.3,188.2H65.7
			c-9.7,0-17.6-7.9-17.6-17.6s7.9-17.6,17.6-17.6h670.6c9.7,0,17.6,7.9,17.6,17.6S746,188.2,736.3,188.2z"/>
	</g>
</g>
</svg>
