<?xml version="1.0" encoding="utf-8"?>
<!-- Generator: Adobe Illustrator 21.0.0, SVG Export Plug-In . SVG Version: 6.00 Build 0)  -->
<svg version="1.1" id="Shape_1_1_" xmlns="http://www.w3.org/2000/svg" xmlns:xlink="http://www.w3.org/1999/xlink" x="0px" y="0px"
	 viewBox="0 0 487 486" style="enable-background:new 0 0 487 486;" xml:space="preserve">
<style type="text/css">
	.st0{fill-rule:evenodd;clip-rule:evenodd;}
</style>
<g id="Shape_1">
	<g>
		<path class="st0" d="M487,95.9V70.5c-2.6-16.8-10.4-32.3-22.7-44.5l-2.4-2.4C447.2,8.8,428.2,1,408.9,0h-8.4
			c-19.3,1-38.3,8.8-53,23.5L118.5,252.8c-2.9,2.9-4.7,6.7-5.2,10.8l-11.2,102.5c-0.6,5.4,1.3,10.8,5.2,14.7s9.3,5.8,14.7,5.2
			l102.4-11.2c4.1-0.4,7.9-2.3,10.8-5.2l88.2-88.3c7-7,7-18.4,0-25.5s-18.4-7-25.5,0l-83.7,83.8l-73.9,8l8-74L373,49.1
			c17.5-17.5,46-17.5,63.5,0l2.4,2.4c17.5,17.5,17.5,46,0,63.6l-55.7,55.8c-3.4,3.4-5.3,8-5.3,12.7l0.1,258.2c0,4.6-3.8,8.4-8.4,8.4
			H45.4c-4.6,0-8.4-3.8-8.4-8.4V117.3c0-4.6,3.8-8.4,8.4-8.4h173c9.9,0,18-8.1,18-18s-8.1-18-18-18h-173C20.9,72.8,1,92.8,1,117.2
			v324.3C1,466.1,20.9,486,45.4,486h324.1c24.5,0,44.4-19.9,44.4-44.4l-0.1-250.7l50.4-50.5C476.6,128.2,484.4,112.7,487,95.9z"/>
	</g>
</g>
</svg>
