<?xml version="1.0" encoding="utf-8"?>
<!-- Generator: Adobe Illustrator 21.0.0, SVG Export Plug-In . SVG Version: 6.00 Build 0)  -->
<svg version="1.1" id="Layer_1" xmlns="http://www.w3.org/2000/svg" xmlns:xlink="http://www.w3.org/1999/xlink" x="0px" y="0px"
	 viewBox="0 0 323.2 125.3" style="enable-background:new 0 0 323.2 125.3;" xml:space="preserve">
<style type="text/css">
	.st0{fill:#9E9E9E;}
	.st1{fill:#6E6E6E;}
	.st2{enable-background:new    ;}
	.st3{fill:#C23333;}
	.st4{fill:#333333;}
</style>
<path class="st0" d="M95.9,89.4c-0.1,1.2-0.5,2.2-0.8,3.1c-3.6,10-10.1,17.6-19.2,23c-4.3,2.6-9,4.5-13.8,5.8
	c-1.3,0.4-2.6,0.4-3.9,0.2c-4.4-0.7-8.6-1.9-12.8-3.5c-1.3-0.5-1.4-0.7-0.9-2c1-2.3,1.4-4.7,0.9-7.2c-0.8-4.7-4.6-8.5-9.3-9.4
	c-4-0.8-7.4,0.3-10.3,3c-0.1,0.1-0.2,0.2-0.4,0.4c-0.9,0.8-1.3,0.8-2.1-0.2c-7.7-8.8-12.5-18.9-14.2-30.4c-1.7-12,0.1-23.5,5.5-34.3
	c0.6-1.2,1.3-2.4,2-3.6c0.5,0.4,0.3,0.7,0.2,1c-0.8,4.2-1,8.4-0.9,12.6c0.4,10.3,3.8,19.5,10.4,27.5c1.1,1.3,2.2,2.6,3.5,3.7
	c1.7,1.5,3.1,3.3,4.3,5.2c1.7,2.7,3.7,5.2,6,7.4c5.6,5.4,12.2,8.8,19.8,10.1c11.4,2,21.6-0.9,30.7-7.8c1.4-1.1,2.7-2.3,4-3.6
	C95,89.9,95.2,89.6,95.9,89.4z"/>
<path class="st1" d="M30,75.6c-0.8-0.7-1.5-1.4-2.2-2.2c-4-4.7-6.6-10.2-8.2-16.1c-1.7-6.4-1.8-12.8-0.9-19.4
	c0.3-2.1,0.7-4.1,1.2-6.1c0.7-2.8,2-5.3,4.1-7.4c2-2,4-4,6.1-5.8c0.3-0.3,0.6-0.6,1-0.8c0.8-0.5,1-0.5,1.6,0.2
	c0.2,0.3,0.4,0.6,0.6,0.8c3,4.2,8.5,6,13.2,4.3c5-1.8,8.3-6.6,8-11.8c0-0.9-0.3-1.8-0.5-2.6c-0.3-1.5-0.1-1.7,1.3-2
	c2.6-0.5,5.3-0.9,8-1c12.8-0.6,24.6,2.5,35.3,9.6c6.9,4.5,12.5,10.3,17,17.2c0.2,0.3,0.4,0.7,0.6,1c0,0.1,0,0.2,0,0.3
	c-0.4,0.1-0.7-0.3-0.9-0.5c-5.2-4-10.9-7.3-17.3-9.3c-9.7-3-19.4-2.6-28.9,0.8c-1.2,0.4-2.5,0.8-3.8,0.8c-12,0.6-21.7,5.6-29,15.1
	c-6.1,7.9-8.5,16.9-7.7,26.8c0.2,2.3,0.6,4.5,1.3,6.8C29.9,74.6,30.2,75,30,75.6z"/>
<path class="st0" d="M33.8,120.1c-5,0-9-4-9-9.1c-0.1-4.4,3.2-9.1,9-9.1c5.2,0,9.2,3.8,9.3,9.2C43.1,116,38.8,120.1,33.8,120.1z"/>
<path class="st1" d="M42.8,21.1c-5.1,0-9.1-3.9-9.2-9c0-5.1,4-9.2,9.1-9.2s9.1,4,9.1,9.1C51.9,17.1,47.9,21.1,42.8,21.1z"/>
<g class="st2">
	<path class="st3" d="M92.9,54.9c-0.4-0.2-1-0.5-1.5-0.7s-1.2-0.4-1.9-0.6c-0.7-0.2-1.3-0.3-2-0.5c-0.7-0.1-1.4-0.2-2-0.2
		c-1.5,0-2.6,0.3-3.3,0.9s-1,1.3-1,2.2c0,0.9,0.3,1.6,1,2.1c0.7,0.5,1.5,1.1,2.6,1.6c1.3,0.6,2.4,1.2,3.3,1.8c0.9,0.6,1.7,1.3,2.4,2
		c0.6,0.7,1.1,1.6,1.4,2.5c0.3,0.9,0.5,2,0.5,3.2c0,1.3-0.3,2.6-0.8,3.9c-0.5,1.3-1.4,2.4-2.6,3.5c-1.2,1-2.7,1.8-4.7,2.5
		S80,80,77.2,80c-0.8,0-1.7,0-2.6-0.1c-0.9-0.1-1.8-0.2-2.7-0.3c-0.9-0.1-1.7-0.3-2.5-0.5c-0.8-0.2-1.5-0.4-2.2-0.7l1.5-7.6
		c0.5,0.3,1.2,0.6,1.9,0.9c0.7,0.3,1.5,0.6,2.3,0.8c0.8,0.2,1.6,0.4,2.5,0.6s1.7,0.2,2.6,0.2c1.6,0,2.8-0.3,3.5-0.8
		c0.8-0.5,1.2-1.3,1.2-2.2c0-0.8-0.3-1.5-0.9-2.1c-0.6-0.6-1.6-1.2-3.1-1.9c-1.2-0.6-2.3-1.2-3.2-1.8c-0.9-0.6-1.7-1.3-2.3-2
		c-0.6-0.7-1.1-1.6-1.4-2.5c-0.3-0.9-0.5-1.9-0.5-3.1c0-1.2,0.2-2.4,0.7-3.7c0.5-1.3,1.3-2.4,2.4-3.5c1.1-1,2.5-1.9,4.3-2.6
		c1.8-0.7,4-1,6.7-1c0.8,0,1.6,0,2.5,0.1c0.8,0.1,1.7,0.2,2.5,0.3c0.8,0.1,1.6,0.3,2.3,0.4c0.7,0.2,1.3,0.3,1.9,0.5L92.9,54.9z"/>
	<path class="st3" d="M132.2,79.2h-10.4L121,60c0-0.7,0-1.4,0.1-2.2c0.1-0.8,0.1-1.5,0.2-2h-0.1c-0.1,0.3-0.2,0.7-0.3,1
		c-0.1,0.4-0.2,0.7-0.4,1.1c-0.1,0.4-0.3,0.7-0.4,1.1c-0.1,0.3-0.3,0.7-0.4,0.9l-9,19.2h-10.6l-2.2-32.4h9.6v21.1
		c0,0.5,0,1.1-0.1,1.8c-0.1,0.7-0.1,1.3-0.2,1.8h0.2c0.1-0.2,0.2-0.5,0.3-0.8c0.1-0.3,0.2-0.7,0.4-1.1c0.1-0.4,0.3-0.7,0.4-1.1
		c0.1-0.4,0.3-0.7,0.4-0.9l9.8-20.8h9.6l0.6,21c0,0.2,0,0.5,0,0.9c0,0.4,0,0.7-0.1,1.1s-0.1,0.7-0.1,1c0,0.3-0.1,0.6-0.1,0.8h0.2
		c0.1-0.2,0.1-0.5,0.3-0.8c0.1-0.3,0.2-0.7,0.3-1.1c0.1-0.4,0.3-0.7,0.4-1.1c0.1-0.3,0.2-0.6,0.3-0.8l8.5-21h9.7L132.2,79.2z"/>
	<path class="st3" d="M162.6,78.9c-0.4,0.1-0.8,0.2-1.3,0.3c-0.5,0.1-1,0.2-1.6,0.3c-0.6,0.1-1.1,0.2-1.7,0.2
		c-0.6,0.1-1.2,0.1-1.8,0.1c-1.4,0-2.6-0.2-3.6-0.6c-1-0.4-1.8-0.9-2.5-1.6s-1.1-1.5-1.4-2.4c-0.3-0.9-0.5-1.9-0.5-3
		c0-0.5,0-1,0.1-1.6c0.1-0.6,0.1-1.2,0.2-1.8c0.1-0.6,0.2-1.3,0.3-1.9c0.1-0.6,0.2-1.3,0.4-1.9c0.1-0.4,0.2-1,0.4-2
		c0.2-1,0.4-2.1,0.7-3.3c0.3-1.2,0.5-2.6,0.8-3.9c0.3-1.4,0.6-2.7,0.8-3.9s0.5-2.3,0.7-3.3c0.2-1,0.3-1.6,0.4-2h10.1L159.3,65
		c-0.2,0.7-0.3,1.6-0.5,2.5c-0.2,0.9-0.3,1.7-0.3,2.4c0,0.8,0.3,1.4,0.8,1.7c0.5,0.3,1.1,0.5,1.7,0.5c0.5,0,1.1-0.1,1.7-0.2
		c0.6-0.1,1.1-0.3,1.5-0.5c-0.3,1.3-0.5,2.5-0.8,3.7C163.2,76.4,162.9,77.6,162.6,78.9z M165.9,36.4c0,0.8-0.2,1.6-0.5,2.2
		c-0.3,0.7-0.7,1.2-1.3,1.7c-0.5,0.5-1.2,0.8-1.9,1.1c-0.7,0.3-1.5,0.4-2.4,0.4c-0.8,0-1.5-0.1-2.2-0.4c-0.7-0.2-1.3-0.6-1.8-1
		c-0.5-0.4-0.9-0.9-1.2-1.5c-0.3-0.6-0.4-1.2-0.4-1.9c0-0.8,0.2-1.6,0.5-2.2c0.3-0.7,0.7-1.2,1.3-1.7c0.5-0.5,1.2-0.8,1.9-1.1
		c0.7-0.3,1.5-0.4,2.4-0.4c0.8,0,1.5,0.1,2.2,0.4c0.7,0.2,1.3,0.6,1.8,1c0.5,0.4,0.9,0.9,1.2,1.5C165.8,35,165.9,35.7,165.9,36.4z"
		/>
	<path class="st3" d="M196.1,39c-0.6-0.2-1.2-0.4-1.9-0.6c-0.7-0.2-1.4-0.3-2.1-0.3c-1.5,0-2.6,0.4-3.4,1.2s-1.4,2.1-1.8,3.9
		l-0.8,3.6h7.4l-1.5,7.4h-7.5L176.6,90h-10l7.7-35.8h-5.5l1.6-7.4h5.4l1-4.7c0.9-3.9,2.5-6.9,5-8.8c2.4-1.9,5.7-2.9,9.8-2.9
		c1.1,0,2.2,0.1,3.2,0.3c1.1,0.2,2,0.4,2.7,0.6L196.1,39z"/>
</g>
<g class="st2">
	<path class="st4" d="M216.4,54.2h-7.6l-2.6,12.1c0,0.3-0.1,0.6-0.2,0.9c-0.1,0.3-0.1,0.6-0.2,0.9s-0.1,0.6-0.1,0.9
		c0,0.3-0.1,0.5-0.1,0.7c0,0.8,0.2,1.5,0.6,1.9c0.4,0.4,1.1,0.6,2.1,0.6c0.3,0,0.6,0,1-0.1c0.4-0.1,0.8-0.1,1.2-0.3s0.8-0.2,1.2-0.3
		s0.7-0.2,0.9-0.3l-1.5,7.4c-0.4,0.1-0.8,0.3-1.4,0.4c-0.5,0.1-1.2,0.3-1.8,0.4c-0.7,0.1-1.3,0.2-2,0.3s-1.4,0.1-2.1,0.1
		c-1.6,0-2.9-0.2-4-0.6c-1.1-0.4-1.9-1-2.6-1.7c-0.6-0.7-1.1-1.6-1.4-2.5c-0.3-1-0.4-2-0.4-3.2c0-0.3,0-0.7,0.1-1.2
		c0-0.4,0.1-0.9,0.2-1.4c0.1-0.5,0.2-0.9,0.3-1.4c0.1-0.5,0.2-0.9,0.3-1.3l2.6-12.5h-5l1.8-7.4h4.8l1.6-7.6l10.5-2.6l-2.1,10.2h7.7
		L216.4,54.2z"/>
	<path class="st4" d="M249.3,55.2c0,1.7-0.4,3.2-1.1,4.6c-0.7,1.4-1.9,2.6-3.5,3.6c-1.7,1-3.9,1.8-6.6,2.4s-6.2,0.9-10.2,1
		c0,0.1-0.1,0.2-0.1,0.3c0,0.1,0,0.2,0,0.3c0,0.7,0.1,1.3,0.3,2c0.2,0.7,0.6,1.2,1.1,1.8s1.2,1,2,1.3c0.8,0.3,1.9,0.5,3.2,0.5
		c0.8,0,1.6-0.1,2.5-0.2s1.8-0.3,2.7-0.6c0.9-0.3,1.8-0.6,2.8-0.9c0.9-0.4,1.8-0.8,2.5-1.2l-1.5,7.5c-0.7,0.3-1.4,0.7-2.2,1
		s-1.8,0.6-2.7,0.9s-2,0.5-3.1,0.6c-1.1,0.1-2.2,0.2-3.4,0.2c-2.4,0-4.5-0.4-6.3-1.1c-1.8-0.7-3.2-1.7-4.3-2.9s-2-2.6-2.5-4.3
		c-0.5-1.6-0.8-3.4-0.8-5.2c0-2.8,0.5-5.4,1.4-7.9c0.9-2.5,2.2-4.7,3.9-6.5c1.7-1.9,3.7-3.4,6.1-4.5c2.4-1.1,5.1-1.7,8-1.7
		c2.1,0,3.9,0.3,5.4,0.8c1.5,0.5,2.7,1.2,3.7,2c0.9,0.9,1.6,1.8,2.1,2.9C249.1,52.8,249.3,54,249.3,55.2z M239.8,55.3
		c0-0.8-0.3-1.4-0.9-1.9c-0.6-0.5-1.4-0.8-2.5-0.8c-0.9,0-1.8,0.2-2.7,0.6c-0.9,0.4-1.6,1-2.3,1.7c-0.7,0.7-1.3,1.6-1.8,2.5
		s-0.9,2-1.1,3.2c3.8,0,6.6-0.4,8.5-1.3C238.8,58.3,239.8,57,239.8,55.3z"/>
	<path class="st4" d="M278.2,55.7c-0.7-0.5-1.6-1-2.8-1.4s-2.4-0.6-3.7-0.6c-1.5,0-2.9,0.4-4.2,1.1c-1.2,0.7-2.3,1.6-3.2,2.8
		c-0.9,1.1-1.5,2.4-2,3.8c-0.5,1.4-0.7,2.8-0.7,4.2c0,2.2,0.5,3.8,1.5,5s2.5,1.8,4.6,1.8c0.6,0,1.3-0.1,2-0.2c0.7-0.1,1.4-0.3,2-0.5
		c0.7-0.2,1.3-0.5,1.9-0.7s1.2-0.6,1.7-0.9l-1.6,7.7c-1.4,0.7-3,1.3-4.6,1.7c-1.6,0.4-3.2,0.6-4.9,0.6c-2.1,0-4-0.3-5.6-1
		c-1.6-0.7-2.9-1.6-4-2.8c-1.1-1.2-1.9-2.6-2.4-4.2c-0.5-1.6-0.8-3.4-0.8-5.4c0-1.8,0.2-3.6,0.6-5.3s1-3.3,1.8-4.9
		c0.8-1.5,1.7-2.9,2.9-4.2c1.1-1.3,2.5-2.4,4-3.3c1.5-0.9,3.1-1.6,4.9-2.2c1.8-0.5,3.7-0.8,5.8-0.8c1,0,1.9,0.1,2.8,0.2
		c0.9,0.1,1.7,0.3,2.4,0.4c0.7,0.2,1.3,0.4,1.9,0.6c0.5,0.2,1,0.4,1.3,0.6L278.2,55.7z"/>
</g>
<g class="st2">
	<path class="st4" d="M153.8,97.5v0.9l-1.7,0.2c0.2,0.2,0.3,0.5,0.4,0.8c0.1,0.3,0.2,0.7,0.2,1.1c0,0.9-0.3,1.6-0.9,2.2
		c-0.6,0.5-1.5,0.8-2.6,0.8c-0.3,0-0.5,0-0.8-0.1c-0.6,0.3-0.9,0.7-0.9,1.2c0,0.3,0.1,0.4,0.3,0.6c0.2,0.1,0.6,0.2,1.1,0.2h1.6
		c1,0,1.8,0.2,2.3,0.6c0.5,0.4,0.8,1,0.8,1.8c0,1-0.4,1.8-1.2,2.4c-0.8,0.5-2,0.8-3.6,0.8c-1.2,0-2.2-0.2-2.8-0.7
		c-0.7-0.5-1-1.1-1-1.9c0-0.6,0.2-1.1,0.5-1.5c0.4-0.4,0.9-0.7,1.5-0.8c-0.2-0.1-0.4-0.3-0.6-0.5c-0.2-0.2-0.2-0.5-0.2-0.8
		c0-0.3,0.1-0.6,0.3-0.9c0.2-0.3,0.5-0.5,0.9-0.7c-0.5-0.2-0.9-0.5-1.2-1c-0.3-0.5-0.5-1-0.5-1.6c0-1,0.3-1.8,0.9-2.4
		c0.6-0.6,1.5-0.8,2.6-0.8c0.5,0,0.9,0.1,1.3,0.2H153.8z M146.4,108.3c0,0.5,0.2,0.9,0.6,1.1c0.4,0.3,1,0.4,1.8,0.4
		c1.2,0,2.1-0.2,2.6-0.5c0.6-0.4,0.9-0.8,0.9-1.4c0-0.5-0.2-0.9-0.5-1c-0.3-0.2-0.9-0.3-1.8-0.3h-1.7c-0.6,0-1.1,0.2-1.5,0.5
		C146.6,107.3,146.4,107.8,146.4,108.3z M147.2,100.4c0,0.7,0.2,1.1,0.6,1.5c0.4,0.3,0.9,0.5,1.5,0.5c1.4,0,2.1-0.7,2.1-2
		c0-1.4-0.7-2.1-2.1-2.1c-0.7,0-1.2,0.2-1.5,0.5C147.4,99.2,147.2,99.7,147.2,100.4z"/>
	<path class="st4" d="M159.7,106.9c-1.4,0-2.5-0.4-3.3-1.3c-0.8-0.8-1.2-2-1.2-3.5c0-1.5,0.4-2.7,1.1-3.6c0.7-0.9,1.7-1.3,3-1.3
		c1.2,0,2.1,0.4,2.8,1.1c0.7,0.8,1,1.8,1,3v0.9h-6.4c0,1.1,0.3,1.9,0.8,2.5c0.5,0.6,1.3,0.8,2.2,0.8c1,0,2-0.2,3-0.6v1.3
		c-0.5,0.2-1,0.4-1.4,0.5S160.3,106.9,159.7,106.9z M159.3,98.5c-0.7,0-1.3,0.2-1.8,0.7c-0.4,0.5-0.7,1.2-0.8,2h4.9
		c0-0.9-0.2-1.6-0.6-2C160.6,98.7,160,98.5,159.3,98.5z"/>
	<path class="st4" d="M168.5,105.8c0.2,0,0.5,0,0.7-0.1c0.2,0,0.4-0.1,0.6-0.1v1.1c-0.2,0.1-0.4,0.1-0.7,0.2c-0.3,0-0.6,0.1-0.8,0.1
		c-1.8,0-2.7-0.9-2.7-2.8v-5.5h-1.3v-0.7l1.3-0.6l0.6-2h0.8v2.2h2.7v1.1H167v5.5c0,0.6,0.1,1,0.4,1.3
		C167.7,105.6,168,105.8,168.5,105.8z"/>
	<path class="st4" d="M179.1,105.8c0.2,0,0.5,0,0.7-0.1c0.2,0,0.4-0.1,0.6-0.1v1.1c-0.2,0.1-0.4,0.1-0.7,0.2c-0.3,0-0.6,0.1-0.8,0.1
		c-1.8,0-2.7-0.9-2.7-2.8v-5.5h-1.3v-0.7l1.3-0.6l0.6-2h0.8v2.2h2.7v1.1h-2.7v5.5c0,0.6,0.1,1,0.4,1.3
		C178.3,105.6,178.7,105.8,179.1,105.8z"/>
	<path class="st4" d="M188.6,106.8v-6c0-0.8-0.2-1.3-0.5-1.7c-0.3-0.4-0.9-0.6-1.6-0.6c-1,0-1.7,0.3-2.1,0.8
		c-0.4,0.5-0.7,1.4-0.7,2.6v4.9h-1.4V93.6h1.4v4c0,0.5,0,0.9-0.1,1.2h0.1c0.3-0.4,0.7-0.8,1.2-1.1c0.5-0.3,1.1-0.4,1.8-0.4
		c1.1,0,2,0.3,2.6,0.8c0.6,0.5,0.9,1.4,0.9,2.6v6.1H188.6z"/>
	<path class="st4" d="M192.8,94.9c0-0.3,0.1-0.6,0.2-0.7c0.2-0.2,0.4-0.2,0.6-0.2c0.2,0,0.4,0.1,0.6,0.2s0.2,0.4,0.2,0.7
		c0,0.3-0.1,0.6-0.2,0.7c-0.2,0.2-0.4,0.2-0.6,0.2c-0.2,0-0.4-0.1-0.6-0.2C192.9,95.5,192.8,95.3,192.8,94.9z M194.3,106.8h-1.4
		v-9.3h1.4V106.8z"/>
	<path class="st4" d="M203.7,106.8v-6c0-0.8-0.2-1.3-0.5-1.7c-0.3-0.4-0.9-0.6-1.6-0.6c-1,0-1.7,0.3-2.1,0.8
		c-0.5,0.5-0.7,1.4-0.7,2.6v4.9h-1.4v-9.3h1.1l0.2,1.3h0.1c0.3-0.5,0.7-0.8,1.2-1.1c0.5-0.3,1.1-0.4,1.7-0.4c1.1,0,2,0.3,2.5,0.8
		c0.6,0.5,0.8,1.4,0.8,2.6v6.1H203.7z"/>
	<path class="st4" d="M215.6,97.5v0.9l-1.7,0.2c0.2,0.2,0.3,0.5,0.4,0.8c0.1,0.3,0.2,0.7,0.2,1.1c0,0.9-0.3,1.6-0.9,2.2
		c-0.6,0.5-1.5,0.8-2.6,0.8c-0.3,0-0.5,0-0.8-0.1c-0.6,0.3-0.9,0.7-0.9,1.2c0,0.3,0.1,0.4,0.3,0.6c0.2,0.1,0.6,0.2,1.1,0.2h1.6
		c1,0,1.8,0.2,2.3,0.6c0.5,0.4,0.8,1,0.8,1.8c0,1-0.4,1.8-1.2,2.4c-0.8,0.5-2,0.8-3.6,0.8c-1.2,0-2.2-0.2-2.8-0.7
		c-0.7-0.5-1-1.1-1-1.9c0-0.6,0.2-1.1,0.5-1.5s0.9-0.7,1.5-0.8c-0.2-0.1-0.4-0.3-0.6-0.5c-0.2-0.2-0.2-0.5-0.2-0.8
		c0-0.3,0.1-0.6,0.3-0.9c0.2-0.3,0.5-0.5,0.9-0.7c-0.5-0.2-0.9-0.5-1.2-1c-0.3-0.5-0.5-1-0.5-1.6c0-1,0.3-1.8,0.9-2.4
		c0.6-0.6,1.5-0.8,2.6-0.8c0.5,0,0.9,0.1,1.3,0.2H215.6z M208.2,108.3c0,0.5,0.2,0.9,0.6,1.1c0.4,0.3,1,0.4,1.8,0.4
		c1.2,0,2.1-0.2,2.6-0.5c0.6-0.4,0.9-0.8,0.9-1.4c0-0.5-0.2-0.9-0.5-1c-0.3-0.2-0.9-0.3-1.8-0.3h-1.7c-0.6,0-1.1,0.2-1.5,0.5
		C208.4,107.3,208.2,107.8,208.2,108.3z M208.9,100.4c0,0.7,0.2,1.1,0.6,1.5c0.4,0.3,0.9,0.5,1.5,0.5c1.4,0,2.1-0.7,2.1-2
		c0-1.4-0.7-2.1-2.1-2.1c-0.7,0-1.2,0.2-1.5,0.5C209.1,99.2,208.9,99.7,208.9,100.4z"/>
	<path class="st4" d="M223.5,104.2c0,0.9-0.3,1.5-1,2c-0.6,0.5-1.5,0.7-2.7,0.7c-1.2,0-2.2-0.2-2.9-0.6V105c0.4,0.2,0.9,0.4,1.4,0.5
		c0.5,0.1,1,0.2,1.5,0.2c0.7,0,1.3-0.1,1.7-0.4c0.4-0.2,0.6-0.6,0.6-1.1c0-0.4-0.2-0.7-0.5-0.9c-0.3-0.3-0.9-0.6-1.8-0.9
		c-0.9-0.3-1.5-0.6-1.8-0.8c-0.4-0.2-0.6-0.5-0.8-0.8c-0.2-0.3-0.3-0.7-0.3-1.1c0-0.8,0.3-1.4,0.9-1.8c0.6-0.4,1.5-0.7,2.5-0.7
		c1,0,2,0.2,2.9,0.6l-0.5,1.1c-0.9-0.4-1.8-0.6-2.5-0.6c-0.7,0-1.2,0.1-1.5,0.3c-0.3,0.2-0.5,0.5-0.5,0.9c0,0.2,0.1,0.5,0.2,0.6
		c0.1,0.2,0.3,0.3,0.6,0.5c0.3,0.2,0.8,0.4,1.6,0.7c1.1,0.4,1.8,0.8,2.2,1.2C223.3,103.1,223.5,103.6,223.5,104.2z"/>
	<path class="st4" d="M236.6,105.5L236.6,105.5c-0.7,0.9-1.7,1.4-3,1.4c-1.2,0-2.2-0.4-2.8-1.2c-0.7-0.8-1-2-1-3.5
		c0-1.5,0.3-2.7,1-3.6c0.7-0.8,1.6-1.3,2.8-1.3c1.3,0,2.2,0.5,2.9,1.4h0.1l-0.1-0.7l0-0.7v-3.8h1.4v13.2h-1.1L236.6,105.5z
		 M233.8,105.8c1,0,1.7-0.3,2.1-0.8s0.6-1.4,0.6-2.5v-0.3c0-1.3-0.2-2.3-0.7-2.8c-0.4-0.6-1.1-0.8-2.1-0.8c-0.8,0-1.5,0.3-1.9,1
		c-0.4,0.6-0.7,1.5-0.7,2.7c0,1.2,0.2,2.1,0.7,2.7C232.3,105.5,233,105.8,233.8,105.8z"/>
	<path class="st4" d="M249,102.1c0,1.5-0.4,2.7-1.1,3.6c-0.8,0.9-1.8,1.3-3.2,1.3c-0.8,0-1.6-0.2-2.2-0.6c-0.6-0.4-1.1-1-1.5-1.7
		c-0.4-0.7-0.5-1.6-0.5-2.6c0-1.5,0.4-2.7,1.1-3.5c0.8-0.8,1.8-1.3,3.2-1.3c1.3,0,2.3,0.4,3.1,1.3C248.6,99.5,249,100.6,249,102.1z
		 M241.9,102.1c0,1.2,0.2,2.1,0.7,2.7c0.5,0.6,1.2,0.9,2.1,0.9c0.9,0,1.6-0.3,2.1-0.9c0.5-0.6,0.7-1.5,0.7-2.7
		c0-1.2-0.2-2.1-0.7-2.7c-0.5-0.6-1.2-0.9-2.1-0.9c-0.9,0-1.6,0.3-2.1,0.9C242.1,100,241.9,100.9,241.9,102.1z"/>
	<path class="st4" d="M257.8,106.8v-6c0-0.8-0.2-1.3-0.5-1.7c-0.3-0.4-0.9-0.6-1.6-0.6c-1,0-1.7,0.3-2.1,0.8
		c-0.5,0.5-0.7,1.4-0.7,2.6v4.9h-1.4v-9.3h1.1l0.2,1.3h0.1c0.3-0.5,0.7-0.8,1.2-1.1c0.5-0.3,1.1-0.4,1.7-0.4c1.1,0,2,0.3,2.5,0.8
		c0.6,0.5,0.8,1.4,0.8,2.6v6.1H257.8z"/>
	<path class="st4" d="M266,106.9c-1.4,0-2.5-0.4-3.3-1.3c-0.8-0.8-1.2-2-1.2-3.5c0-1.5,0.4-2.7,1.1-3.6c0.7-0.9,1.7-1.3,3-1.3
		c1.2,0,2.1,0.4,2.8,1.1c0.7,0.8,1,1.8,1,3v0.9H263c0,1.1,0.3,1.9,0.8,2.5c0.5,0.6,1.3,0.8,2.2,0.8c1,0,2-0.2,3-0.6v1.3
		c-0.5,0.2-1,0.4-1.4,0.5S266.7,106.9,266,106.9z M265.6,98.5c-0.7,0-1.3,0.2-1.8,0.7c-0.4,0.5-0.7,1.2-0.8,2h4.9
		c0-0.9-0.2-1.6-0.6-2C266.9,98.7,266.4,98.5,265.6,98.5z"/>
	<path class="st4" d="M271.6,105.9c0-0.4,0.1-0.7,0.3-0.9c0.2-0.2,0.4-0.3,0.7-0.3c0.3,0,0.6,0.1,0.8,0.3s0.3,0.5,0.3,0.9
		c0,0.4-0.1,0.7-0.3,0.8s-0.4,0.3-0.8,0.3c-0.3,0-0.5-0.1-0.7-0.3S271.6,106.3,271.6,105.9z"/>
	<path class="st4" d="M276.3,105.9c0-0.4,0.1-0.7,0.3-0.9c0.2-0.2,0.4-0.3,0.7-0.3c0.3,0,0.6,0.1,0.8,0.3c0.2,0.2,0.3,0.5,0.3,0.9
		c0,0.4-0.1,0.7-0.3,0.8c-0.2,0.2-0.4,0.3-0.8,0.3c-0.3,0-0.5-0.1-0.7-0.3C276.4,106.6,276.3,106.3,276.3,105.9z"/>
</g>
<g class="st2">
	<path class="st3" d="M290.3,32.2c0,1.1-0.4,1.9-1.2,2.5c-0.8,0.6-1.9,0.9-3.3,0.9h-1.1v3.6h-2.5V29h3.7c1.4,0,2.5,0.3,3.2,0.8
		C289.9,30.3,290.3,31.1,290.3,32.2z M284.7,33.8h0.8c0.8,0,1.3-0.1,1.7-0.4s0.6-0.6,0.6-1.1c0-0.5-0.2-0.9-0.5-1.1
		c-0.3-0.2-0.8-0.4-1.5-0.4h-1.1V33.8z"/>
	<path class="st3" d="M295,35.2v3.9h-2.5V29h3.4c1.6,0,2.8,0.3,3.5,0.8c0.8,0.5,1.1,1.3,1.1,2.3c0,0.6-0.2,1.1-0.6,1.6
		c-0.4,0.5-0.9,0.8-1.6,1.1c1.8,2.3,2.9,3.8,3.4,4.4h-2.7l-2.8-3.9H295z M295,33.5h0.8c0.8,0,1.4-0.1,1.7-0.3
		c0.4-0.2,0.6-0.6,0.6-1.1c0-0.5-0.2-0.8-0.6-1c-0.4-0.2-1-0.3-1.8-0.3H295V33.5z"/>
	<path class="st3" d="M313.9,34c0,1.7-0.5,3-1.4,3.9c-1,0.9-2.3,1.4-4.1,1.4c-1.8,0-3.2-0.5-4.1-1.4c-1-0.9-1.4-2.2-1.4-3.9
		s0.5-3,1.4-3.9c1-0.9,2.3-1.3,4.1-1.3c1.8,0,3.2,0.4,4.1,1.3S313.9,32.4,313.9,34z M305.4,34c0,1.1,0.2,2,0.7,2.6
		c0.5,0.6,1.2,0.9,2.2,0.9c2,0,3-1.1,3-3.4c0-2.3-1-3.4-2.9-3.4c-1,0-1.7,0.3-2.2,0.9C305.6,32.1,305.4,32.9,305.4,34z"/>
</g>
</svg>
