<?xml version="1.0" encoding="utf-8"?>
<!-- Generator: Adobe Illustrator 21.0.0, SVG Export Plug-In . SVG Version: 6.00 Build 0)  -->
<svg version="1.1" id="Forma_1_1_" xmlns="http://www.w3.org/2000/svg" xmlns:xlink="http://www.w3.org/1999/xlink" x="0px" y="0px"
	 viewBox="0 0 55 60" style="enable-background:new 0 0 55 60;" xml:space="preserve">
<style type="text/css">
	.st0{fill-rule:evenodd;clip-rule:evenodd;fill:#666666;}
</style>
<g id="Forma_1">
	<g>
		<path class="st0" d="M47.2,41.5l-5.6,8l-3.9-3.2c-0.4-0.4-1.1-0.3-1.4,0.1c-0.4,0.4-0.3,1.1,0.1,1.4l4.8,3.9
			c0.2,0.1,0.4,0.2,0.6,0.2c0,0,0.1,0,0.1,0c0.3,0,0.5-0.2,0.7-0.4l6.2-8.9c0.3-0.5,0.2-1.1-0.3-1.4C48.1,40.9,47.5,41,47.2,41.5z
			 M43,34.1V7c0-0.6-0.4-1-1-1h-8V4c0-0.6-0.4-1-1-1h-6V1c0-0.6-0.4-1-1-1h-9c-0.6,0-1,0.4-1,1v2h-6C9.4,3,9,3.4,9,4v2H1
			C0.4,6,0,6.4,0,7v50c0,0.6,0.4,1,1,1h34.1c2,1.3,4.4,2,6.9,2c7.2,0,13-5.8,13-13C55,40.2,49.7,34.6,43,34.1z M18,2h7v4h-7V2z
			 M11,5h5v2c0,0.6,0.4,1,1,1h9c0.6,0,1-0.4,1-1V5h5v4H11V5z M2,56V8h7v2c0,0.6,0.4,1,1,1h23c0.6,0,1-0.4,1-1V8h7v26
			c-0.1,0-0.1,0-0.2,0c-0.2,0-0.4,0-0.6,0.1c-0.2,0-0.5,0.1-0.7,0.1c-0.2,0-0.4,0.1-0.6,0.1c-0.2,0.1-0.4,0.1-0.7,0.2
			c-0.2,0.1-0.4,0.1-0.6,0.2c-0.2,0.1-0.4,0.1-0.6,0.2c-0.2,0.1-0.4,0.1-0.5,0.2c-0.2,0.1-0.4,0.2-0.6,0.3c-0.2,0.1-0.3,0.2-0.5,0.3
			c-0.2,0.1-0.4,0.2-0.6,0.3c-0.2,0.1-0.3,0.2-0.5,0.3c-0.2,0.1-0.3,0.3-0.5,0.4c-0.2,0.1-0.3,0.2-0.4,0.4c-0.2,0.1-0.3,0.3-0.5,0.4
			c-0.1,0.1-0.3,0.3-0.4,0.4c-0.2,0.2-0.3,0.3-0.4,0.5c-0.1,0.1-0.2,0.3-0.4,0.4c-0.1,0.2-0.3,0.3-0.4,0.5c-0.1,0.2-0.2,0.3-0.3,0.5
			c-0.1,0.2-0.2,0.4-0.3,0.6c-0.1,0.2-0.2,0.3-0.3,0.5c-0.1,0.2-0.2,0.4-0.3,0.6c-0.1,0.2-0.2,0.3-0.2,0.5c-0.1,0.2-0.2,0.4-0.2,0.7
			c-0.1,0.2-0.1,0.3-0.2,0.5c-0.1,0.2-0.1,0.5-0.2,0.7c0,0.2-0.1,0.3-0.1,0.5c-0.1,0.3-0.1,0.6-0.1,0.8c0,0.1,0,0.3-0.1,0.4
			c0,0.4-0.1,0.9-0.1,1.3c0,0.4,0,0.9,0.1,1.3c0,0.2,0,0.3,0.1,0.5c0,0.3,0.1,0.5,0.1,0.8c0,0.2,0.1,0.3,0.1,0.5
			c0.1,0.2,0.1,0.5,0.2,0.7c0,0.2,0.1,0.3,0.2,0.5c0.1,0.2,0.2,0.5,0.3,0.7c0.1,0.1,0.1,0.3,0.2,0.4c0.1,0.3,0.2,0.5,0.4,0.8
			c0.1,0.1,0.1,0.2,0.2,0.3c0.1,0.3,0.3,0.5,0.5,0.8c0.1,0.1,0.1,0.2,0.2,0.3c0.2,0.3,0.4,0.5,0.6,0.7c0.1,0.1,0.2,0.2,0.2,0.3
			c0.2,0.2,0.3,0.4,0.5,0.5H2z M42,58c-2.3,0-4.4-0.7-6.1-1.9c-0.3-0.2-0.7-0.5-1-0.7c-0.1-0.1-0.2-0.2-0.3-0.3
			c-0.2-0.2-0.4-0.4-0.6-0.6c-0.1-0.1-0.2-0.2-0.3-0.4c-0.2-0.2-0.3-0.4-0.5-0.6c-0.1-0.1-0.2-0.3-0.3-0.4c-0.2-0.3-0.4-0.7-0.6-1
			c0-0.1-0.1-0.2-0.1-0.2c-0.1-0.3-0.3-0.6-0.4-0.9c-0.1-0.1-0.1-0.3-0.1-0.4c-0.1-0.3-0.2-0.5-0.3-0.8c0-0.1-0.1-0.3-0.1-0.4
			c-0.1-0.3-0.1-0.6-0.2-0.9c0-0.1,0-0.2-0.1-0.4c0-0.4-0.1-0.8-0.1-1.3c0-6.1,4.9-11,11-11s11,4.9,11,11S48.1,58,42,58z M7,18h13
			c0.6,0,1-0.4,1-1s-0.4-1-1-1H7c-0.6,0-1,0.4-1,1S6.4,18,7,18z M20,46H7c-0.6,0-1,0.4-1,1s0.4,1,1,1h13c0.6,0,1-0.4,1-1
			S20.6,46,20,46z M7,24h29c0.6,0,1-0.4,1-1s-0.4-1-1-1H7c-0.6,0-1,0.4-1,1S6.4,24,7,24z M7,36h24c0.6,0,1-0.4,1-1s-0.4-1-1-1H7
			c-0.6,0-1,0.4-1,1S6.4,36,7,36z M26,40H7c-0.6,0-1,0.4-1,1s0.4,1,1,1h19c0.6,0,1-0.4,1-1S26.6,40,26,40z M7,30h14c0.6,0,1-0.4,1-1
			s-0.4-1-1-1H7c-0.6,0-1,0.4-1,1S6.4,30,7,30z M36,28h-7c-0.6,0-1,0.4-1,1s0.4,1,1,1h7c0.6,0,1-0.4,1-1S36.6,28,36,28z M24.3,28.3
			C24.1,28.5,24,28.7,24,29c0,0.3,0.1,0.5,0.3,0.7c0.2,0.2,0.5,0.3,0.7,0.3s0.5-0.1,0.7-0.3c0.2-0.2,0.3-0.5,0.3-0.7
			c0-0.3-0.1-0.5-0.3-0.7C25.3,27.9,24.7,27.9,24.3,28.3z"/>
	</g>
</g>
</svg>
