<?xml version="1.0" encoding="utf-8"?>
<!-- Generator: Adobe Illustrator 21.0.0, SVG Export Plug-In . SVG Version: 6.00 Build 0)  -->
<svg version="1.1" id="Shape_1_1_" xmlns="http://www.w3.org/2000/svg" xmlns:xlink="http://www.w3.org/1999/xlink" x="0px" y="0px"
	 viewBox="0 0 520 800" style="enable-background:new 0 0 520 800;" xml:space="preserve">
<style type="text/css">
	.st0{fill-rule:evenodd;clip-rule:evenodd;fill:#FFFFFF;}
</style>
<g id="Shape_1">
	<g>
		<path class="st0" d="M499.6,354.7c-7.8-6.1-76.7-82-115.7-117.4c-0.2-0.2-0.2-0.2-0.2-0.3V73.6c0-40.5-33-73.6-73.5-73.6H69.4
			C31.7,0,1,30.9,1,68.4v383.2c0,40.5,33,73.6,73.5,73.6h87.8c3,0,5.5-2.7,5.1-5.6l-3.8-32.5c-0.3-2.7-2.5-4.5-5.1-4.5h-10.5
			c-2.8,0-5.1-2.3-5.1-5.1V42c0-2.8,2.3-5.1,5.1-5.1h162.7c16.4,0,29.9,13.4,29.9,29.9v390.7c0,11.3-7.8,20.9-18.3,23.9
			c-0.2,0-0.2,0-0.3,0c-17.8-9.6-38.7-50.8-41.8-57.3c-0.3-0.5-0.5-1.2-0.5-1.7c-1.2-10.5-12.9-111.7-66.9-111.7c-1.5,0-3,0-4.5,0.2
			c0,0-43.2,3.7-7.5,126.7c0,0.3,0.2,0.5,0.2,0.8l15.8,136.3c0,0.2,0,0.3,0.2,0.7c1.3,5.1,19.3,74.7,65.6,124c0.8,1,1.3,2.2,1.3,3.5
			v11.8c0,0.3-0.2,0.5-0.5,0.5h-4.1c-10.1,0-18.4,8.3-18.4,18.4v48c0,10.1,8.3,18.4,18.4,18.4h195.4c10.1,0,18.4-8.3,18.4-18.4
			v-47.7c0-10.1-8.3-18.4-18.4-18.4c-0.3,0-0.5-0.2-0.5-0.5c6.5-60.1,29.7-265.7,42.2-281.8c0.3-0.5,0.7-1,0.8-1.7
			C519.2,424.1,530,378.4,499.6,354.7z M77.9,477.7c0,2.7-2.2,4.6-4.6,4.6c-16.3,0-29.5-13.3-29.5-29.6V66.4
			c0-16.3,13.3-29.6,29.5-29.6c2.7,0,4.6,2.2,4.6,4.6V477.7z"/>
	</g>
</g>
</svg>
