<?xml version="1.0" encoding="utf-8"?>
<!-- Generator: Adobe Illustrator 21.0.0, SVG Export Plug-In . SVG Version: 6.00 Build 0)  -->
<svg version="1.1" id="Shape_1_1_" xmlns="http://www.w3.org/2000/svg" xmlns:xlink="http://www.w3.org/1999/xlink" x="0px" y="0px"
	 viewBox="0 0 800 800" style="enable-background:new 0 0 800 800;" xml:space="preserve">
<style type="text/css">
	.st0{fill-rule:evenodd;clip-rule:evenodd;fill:#C23333;}
</style>
<g id="Shape_1">
	<g>
		<path class="st0" d="M430.8,379.6h-59.4c-24.7,0-44.8-20.1-44.8-44.8c0-24.7,20.1-44.8,44.8-44.8h104.9c11.2,0,20.4-9.2,20.4-20.4
			c0-11.2-9.2-20.4-20.4-20.4h-54.6v-41.7c0-11.2-9.2-20.4-20.4-20.4c-11.2,0-20.4,9.2-20.4,20.4v41.7h-9.4
			c-47.1,0-85.6,38.5-85.6,85.6c0,47.1,38.5,85.6,85.6,85.6h59.4c24.7,0,44.8,20.1,44.8,44.8c0,24.7-20.1,44.8-44.8,44.8H324.1
			c-11.2,0-20.4,9.2-20.4,20.4s9.2,20.4,20.4,20.4h56.5v42.6c0,11.2,9.2,20.4,20.4,20.4s20.4-9.2,20.4-20.4v-42.6h10.4
			c46.6-0.7,84.4-38.8,84.4-85.6C516.2,417.9,477.9,379.6,430.8,379.6z M683.9,117.1C608.3,41.5,507.9,0,401,0
			S193.7,41.5,118.1,117.1C42.5,192.7,1,293.1,1,400s41.5,207.3,117.1,282.9C193.7,758.5,294.1,800,401,800s207.3-41.5,282.9-117.1
			c68.8-68.8,109.4-158.2,116.1-254.3v-57.1C793.3,275.3,752.7,185.9,683.9,117.1z M401,759.1C203,759.1,41.9,598,41.9,400
			C41.9,202,203,40.9,401,40.9C599,40.9,760.1,202,760.1,400C760.1,598,599,759.1,401,759.1z"/>
	</g>
</g>
</svg>
