<?xml version="1.0" encoding="utf-8"?>
<!-- Generator: Adobe Illustrator 21.0.0, SVG Export Plug-In . SVG Version: 6.00 Build 0)  -->
<svg version="1.1" id="Shape_1_1_" xmlns="http://www.w3.org/2000/svg" xmlns:xlink="http://www.w3.org/1999/xlink" x="0px" y="0px"
	 viewBox="0 0 493 492" style="enable-background:new 0 0 493 492;" xml:space="preserve">
<style type="text/css">
	.st0{fill-rule:evenodd;clip-rule:evenodd;fill:#F1F1F1;}
</style>
<g id="Shape_1">
	<g>
		<path class="st0" d="M257.2,369h-20.5v20.5h20.5V369z M257.2,410h-20.5v20.5h20.5V410z M487.4,123h-56V51.3H208.2L154.7,0H1v389.5
			h194.7v51.2c0,28.3,23,51.2,51.2,51.2c28.3,0,51.2-23,51.2-51.2v-51.2h109.5l84.7-252.3l0.6-2v-4.7L487.4,123z M21.5,20.5h124.9
			L200,71.8h211V123H86.1L21.5,316.2V20.5z M277.7,440.7c0,17-13.8,30.7-30.7,30.7s-30.7-13.8-30.7-30.7V338.2h61.5V440.7z
			 M238.2,202.2l8.8-26.3l8.8,26.3L247,211L238.2,202.2z M392.9,369h-94.7v-51.2h-41v-88l22-22l-18-54h-28.4l-18,54l22,22v88h-41
			V369H25.5l75.3-225.5h367.8L392.9,369z"/>
	</g>
</g>
</svg>
