<?xml version="1.0" encoding="utf-8"?>
<!-- Generator: Adobe Illustrator 21.0.0, SVG Export Plug-In . SVG Version: 6.00 Build 0)  -->
<svg version="1.1" id="Forma_1_1_" xmlns="http://www.w3.org/2000/svg" xmlns:xlink="http://www.w3.org/1999/xlink" x="0px" y="0px"
	 viewBox="0 0 42 45" style="enable-background:new 0 0 42 45;" xml:space="preserve">
<style type="text/css">
	.st0{fill-rule:evenodd;clip-rule:evenodd;fill:#FFFFFF;}
</style>
<g id="Forma_1">
	<g>
		<path class="st0" d="M22.3,40.4l-2.8,0.8c-0.2,0.1-0.4,0.1-0.7,0.1c-0.5,0-1-0.2-1.4-0.5c-0.6-0.4-1-1.1-1.1-1.8L16.1,36
			c-0.1-0.6,0.1-1.2,0.4-1.7l0.1-0.1H6.7c-0.8,0-1.4-0.7-1.4-1.5c0-0.8,0.6-1.5,1.4-1.5h12l2.7-3.9H6.7c-0.8,0-1.4-0.7-1.4-1.5
			c0-0.8,0.6-1.5,1.4-1.5l16.8,0l6.3-9.1V8.6c0-1.1-0.8-2-1.9-2H23v3.8c0,1.8-1.5,3.3-3.3,3.3h-9.7c-1.8,0-3.2-1.4-3.2-3.3V6.6H2
			c-1.1,0-2,0.9-2,2v34.4c0,1.1,0.9,2,2,2h25.8c1.1,0,1.9-0.9,1.9-2V30.6l-6.1,8.7C23.3,39.9,22.8,40.2,22.3,40.4z M6.7,17.6h16.4
			c0.8,0,1.4,0.7,1.4,1.5c0,0.8-0.6,1.5-1.4,1.5H6.7c-0.8,0-1.4-0.7-1.4-1.5C5.3,18.3,5.9,17.6,6.7,17.6z M10.1,11.7h9.7
			c0.7,0,1.3-0.6,1.3-1.3V4.8c0-0.7-0.6-1.3-1.3-1.3h-1.5c0-1.9-1.5-3.4-3.4-3.4c-1.9,0-3.4,1.5-3.4,3.4h-1.4C9.3,3.4,8.8,4,8.8,4.8
			v5.6C8.8,11.1,9.3,11.7,10.1,11.7z M14.9,1.9c0.8,0,1.5,0.7,1.5,1.5h-3C13.4,2.6,14.1,1.9,14.9,1.9z M41.6,8.4l-2.4-1.7
			c-0.2-0.1-0.4-0.2-0.5-0.2c-0.3,0-0.6,0.1-0.8,0.4L20.7,31.8l4,2.8L41.8,9.8C41.9,9.5,42,9.3,42,9C41.9,8.8,41.8,8.6,41.6,8.4z
			 M18,35.8l0.2,2.9c0,0.2,0.1,0.3,0.2,0.4c0.1,0.1,0.2,0.1,0.3,0.1c0,0,0.1,0,0.1,0l2.8-0.8c0.1,0,0.2-0.1,0.3-0.2l1-1.5l-4-2.8
			l-1,1.5C18,35.6,18,35.7,18,35.8z"/>
	</g>
</g>
</svg>
