<?xml version="1.0" encoding="utf-8"?>
<!-- Generator: Adobe Illustrator 21.0.0, SVG Export Plug-In . SVG Version: 6.00 Build 0)  -->
<svg version="1.1" id="Shape_1_1_" xmlns="http://www.w3.org/2000/svg" xmlns:xlink="http://www.w3.org/1999/xlink" x="0px" y="0px"
	 viewBox="0 0 800 799" style="enable-background:new 0 0 800 799;" xml:space="preserve">
<style type="text/css">
	.st0{fill-rule:evenodd;clip-rule:evenodd;fill:#FFFFFF;}
</style>
<g id="Shape_1">
	<g>
		<path class="st0" d="M486.2,428.1h-49.7c-7.4,0-13.2,5.9-13.2,13.3v49.7c0,7.4,5.9,13.3,13.2,13.3h49.7c7.4,0,13.2-5.9,13.2-13.3
			v-49.7C499.4,434,493.6,428.1,486.2,428.1z M486.2,327h-49.7c-7.4,0-13.2,5.9-13.2,13.3V390c0,7.4,5.9,13.3,13.2,13.3h49.7
			c7.4,0,13.2-5.9,13.2-13.3v-49.7C499.4,332.9,493.6,327,486.2,327z M540.3,327c-7.4,0-13.2,5.9-13.2,13.3V390
			c0,7.4,5.9,13.3,13.2,13.3H590c7.4,0,13.2-5.9,13.2-13.3v-49.7c0-7.4-5.9-13.3-13.2-13.3H540.3z M652,501.9
			c-82.3,0-149,66.7-149,149c0,76.5,57.6,139.5,131.7,148h34.5c68.5-7.9,122.8-62.3,130.7-130.8v-34.5
			C791.4,559.5,728.4,501.9,652,501.9z M721.9,625l-77.4,77.4c-7,7-18.3,7-25.3,0l-37.4-37.5c-3.4-3.3-5.2-7.9-5.2-12.6
			c0-4.7,1.8-9.2,5.2-12.6c7-7,18.3-7,25.3,0l24.9,24.9l64.8-64.8c7-7,18.3-7,25.3,0c3.4,3.3,5.2,7.9,5.2,12.6
			C727.2,617.1,725.4,621.7,721.9,625z M79,653.3c-9.8,0-17.7-8-17.7-17.7V280.1h591.5v165.4c20.9,0.2,41.2,3.3,60.2,9.3V155.6
			c0-43-35-78-78-78h-87.3V29.5c0-15.7-12.8-28.5-28.5-28.5h-44.3c-15.7,0-28.5,12.8-28.5,28.5v48.3H267.6V29.5
			c0-15.7-12.8-28.5-28.5-28.5h-44.3c-15.7,0-28.5,12.8-28.5,28.5v48.3H79c-43,0-78,35-78,78v479.8c0,42.9,35,77.9,78,77.9h377.3
			c-6.1-19-9.5-39.3-9.6-60.2H79z M395.6,441.4c0-7.4-5.9-13.3-13.2-13.3h-49.7c-7.4,0-13.2,5.9-13.2,13.3v49.7
			c0,7.4,5.9,13.3,13.2,13.3h49.7c7.4,0,13.2-5.9,13.2-13.3V441.4z M187.9,441.4c0-7.4-5.9-13.3-13.2-13.3H125
			c-7.4,0-13.2,5.9-13.2,13.3v49.7c0,7.4,5.9,13.3,13.2,13.3h49.7c7.4,0,13.2-5.9,13.2-13.3V441.4z M382.4,529.2h-49.7
			c-7.4,0-13.2,5.9-13.2,13.3v49.7c0,7.4,5.9,13.3,13.2,13.3h49.7c7.4,0,13.2-5.9,13.2-13.3v-49.7
			C395.6,535.1,389.7,529.2,382.4,529.2z M174.5,529.2H125c-7.4,0-13.2,5.9-13.2,13.3v49.7c0,7.4,5.9,13.3,13.2,13.3h49.7
			c7.4,0,13.2-5.9,13.2-13.3v-49.7C187.9,535.1,181.9,529.2,174.5,529.2z M291.8,340.1c0-7.4-5.9-13.3-13.2-13.3h-49.7
			c-7.4,0-13.2,5.9-13.2,13.3v49.7c0,7.4,5.9,13.3,13.2,13.3h49.7c7.4,0,13.2-5.9,13.2-13.3V340.1z M395.6,340.3
			c0-7.4-5.9-13.3-13.2-13.3h-49.7c-7.4,0-13.2,5.9-13.2,13.3V390c0,7.4,5.9,13.3,13.2,13.3h49.7c7.4,0,13.2-5.9,13.2-13.3V340.3z
			 M278.5,529.2h-49.7c-7.4,0-13.2,5.9-13.2,13.3v49.7c0,7.4,5.9,13.3,13.2,13.3h49.7c7.4,0,13.2-5.9,13.2-13.3v-49.7
			C291.8,535.1,285.9,529.2,278.5,529.2z M291.8,441.4c0-7.4-5.9-13.3-13.2-13.3h-49.7c-7.4,0-13.2,5.9-13.2,13.3v49.7
			c0,7.4,5.9,13.3,13.2,13.3h49.7c7.4,0,13.2-5.9,13.2-13.3V441.4z"/>
	</g>
</g>
</svg>
