<?xml version="1.0" encoding="utf-8"?>
<!-- Generator: Adobe Illustrator 21.0.0, SVG Export Plug-In . SVG Version: 6.00 Build 0)  -->
<svg version="1.1" id="Shape_1_1_" xmlns="http://www.w3.org/2000/svg" xmlns:xlink="http://www.w3.org/1999/xlink" x="0px" y="0px"
	 viewBox="0 0 512 512" style="enable-background:new 0 0 512 512;" xml:space="preserve">
<style type="text/css">
	.st0{fill-rule:evenodd;clip-rule:evenodd;fill:#666666;}
</style>
<g id="Shape_1">
	<g>
		<path class="st0" d="M337.7,289.2C337.7,289.2,337.7,289.2,337.7,289.2L326,260.8c-4-9.7-14.8-15.2-25-12.6
			c-6.1,1.5-12.3,3.1-18.4,4.8c-6.9-8.7-14.8-16.6-23.5-23.5c1.7-6.2,3.3-12.4,4.8-18.4c2.5-10.2-2.9-20.9-12.6-25l-28.4-11.8
			c-9.7-4-21.2-0.3-26.6,8.7c-3.2,5.4-6.5,10.9-9.7,16.4c-11.1-1.3-22.2-1.3-33.3,0c-3.2-5.5-6.4-11.1-9.7-16.4
			c-5.4-9-16.8-12.8-26.6-8.7L88.6,186c-9.7,4-15.2,14.8-12.6,25c1.5,6.1,3.1,12.3,4.8,18.4c-8.7,6.9-16.6,14.8-23.5,23.5
			c-6.2-1.7-12.4-3.3-18.4-4.8c-10.2-2.5-20.9,2.9-25,12.6L2,289.2c-4,9.7-0.3,21.2,8.7,26.6c5.4,3.2,10.9,6.5,16.4,9.7
			c-1.3,11.1-1.3,22.2,0,33.3c-5.5,3.2-11.1,6.4-16.4,9.7C1.8,373.8-2,385.3,2,395l11.8,28.4c4,9.7,14.8,15.2,25,12.6
			c6.1-1.5,12.3-3.1,18.4-4.8c6.9,8.7,14.8,16.6,23.5,23.5c-1.7,6.2-3.3,12.4-4.8,18.4c-2.5,10.2,2.9,20.9,12.6,25L117,510
			c2.6,1.1,5.4,1.6,8.1,1.6c7.4,0,14.5-3.8,18.5-10.3c3.2-5.3,6.5-10.8,9.7-16.4c11.1,1.3,22.2,1.3,33.3,0c3.2,5.5,6.4,11,9.7,16.4
			c5.4,9,16.8,12.8,26.6,8.7l28.4-11.8c9.7-4,15.2-14.8,12.6-25c-1.5-6-3.1-12.2-4.8-18.4c8.7-6.9,16.6-14.8,23.5-23.5
			c6.2,1.7,12.4,3.3,18.4,4.8c10.2,2.5,20.9-2.9,25-12.6l11.8-28.4c4-9.7,0.3-21.2-8.7-26.6c-5.4-3.2-10.9-6.5-16.4-9.7
			c1.3-11.1,1.3-22.2,0-33.3c5.5-3.2,11.1-6.4,16.4-9.7C338,310.4,341.8,299,337.7,289.2z M300.3,306.1
			c-7.5,4.3-11.7,12.6-10.6,21.2c1.2,9.8,1.2,19.8,0,29.6c-1.1,8.6,3.1,16.9,10.6,21.2c5.3,3,10.6,6.2,15.8,9.3l-10.8,26.1
			c-5.8-1.5-11.8-3-17.7-4.6c-8.4-2.3-17.2,0.7-22.5,7.5c-6.1,7.8-13.1,14.9-21,21c-6.8,5.3-9.7,14.1-7.5,22.5
			c1.6,5.9,3.1,11.9,4.6,17.7l-26.1,10.8c-3.1-5.2-6.2-10.5-9.3-15.8c-4.3-7.5-12.6-11.7-21.2-10.6c-9.8,1.2-19.8,1.2-29.6,0
			c-8.6-1.1-16.9,3.1-21.2,10.6c-3.1,5.3-6.2,10.6-9.3,15.8l-26.1-10.8c1.5-5.8,3-11.8,4.6-17.7c2.3-8.4-0.7-17.2-7.5-22.5
			c-7.8-6.1-14.9-13.1-21-20.9c-5.3-6.8-14.1-9.7-22.5-7.5c-5.9,1.6-11.9,3.1-17.7,4.6l-10.8-26.1c5.2-3.1,10.5-6.2,15.8-9.3
			c7.5-4.3,11.7-12.6,10.6-21.2c-1.2-9.8-1.2-19.8,0-29.6c1.1-8.6-3.1-16.9-10.6-21.2c-5.3-3.1-10.6-6.2-15.8-9.3l10.8-26.1
			c5.8,1.5,11.8,3,17.7,4.6c8.4,2.3,17.2-0.7,22.5-7.5c6.1-7.8,13.1-14.9,20.9-21c6.8-5.3,9.7-14.1,7.5-22.5
			c-1.6-5.9-3.1-11.8-4.6-17.7l26.1-10.8c3.1,5.1,6.2,10.4,9.3,15.8c4.3,7.5,12.7,11.7,21.2,10.6c9.8-1.2,19.8-1.2,29.6,0
			c8.6,1.1,16.9-3.1,21.2-10.6c3.1-5.3,6.2-10.6,9.3-15.8l26.1,10.8c-1.5,5.8-3,11.8-4.6,17.7c-2.3,8.4,0.7,17.2,7.5,22.5
			c7.8,6.1,14.9,13.1,21,20.9c5.3,6.8,14.1,9.7,22.5,7.5c5.9-1.6,11.9-3.1,17.7-4.6l10.8,26.1C310.9,299.9,305.7,303,300.3,306.1z
			 M242,312.3c-16.5-39.8-62.2-58.7-102-42.2c-39.8,16.5-58.7,62.2-42.2,102c8,19.3,23,34.3,42.2,42.2c9.6,4,19.7,6,29.9,6
			c10.1,0,20.2-2,29.9-6C239.5,397.8,258.4,352,242,312.3C242,312.3,242,312.3,242,312.3z M191,393.1c-13.6,5.6-28.6,5.6-42.2,0
			c-13.6-5.6-24.2-16.2-29.8-29.8c-11.6-28.1,1.8-60.4,29.8-72c6.9-2.8,14-4.2,21-4.2c21.6,0,42.2,12.8,51,34
			C232.5,349.1,219.1,381.4,191,393.1z M496.6,100.9c-4-0.6-8-1.2-12.1-1.7c-2.1-6.9-4.8-13.5-8.2-19.8c2.5-3.3,5-6.6,7.4-9.8
			c5.3-7.2,4.5-17.3-1.8-23.6L466,30.2c-6.3-6.3-16.5-7.1-23.6-1.8c-3.2,2.4-6.5,4.9-9.8,7.3c-6.3-3.4-12.9-6.1-19.8-8.2
			c-0.5-4.1-1.1-8.1-1.7-12.1c-1.3-8.8-9-15.4-17.9-15.4h-22.3c-8.9,0-16.6,6.6-17.9,15.4c-0.6,3.9-1.2,8-1.7,12.1
			c-6.9,2.1-13.5,4.8-19.8,8.2c-3.3-2.5-6.5-5-9.8-7.3c-7.2-5.3-17.3-4.5-23.6,1.8L282.2,46c-6.3,6.3-7.1,16.5-1.8,23.6
			c2.4,3.2,4.8,6.5,7.3,9.8c-3.4,6.3-6.1,12.9-8.2,19.8c-4.1,0.5-8.1,1.1-12.1,1.7c-8.8,1.3-15.4,9-15.4,17.9v22.3
			c0,8.9,6.6,16.6,15.4,17.9c4,0.6,8,1.2,12.1,1.7c2.1,6.9,4.8,13.5,8.2,19.8c-2.5,3.3-5,6.5-7.4,9.8c-5.3,7.2-4.5,17.3,1.8,23.6
			l15.8,15.8c6.3,6.3,16.5,7.1,23.6,1.8c3.2-2.4,6.5-4.9,9.8-7.3c6.3,3.4,13,6.1,19.8,8.2c0.5,4.1,1.1,8.1,1.7,12.1
			c1.3,8.8,9,15.4,17.9,15.4h22.3c8.9,0,16.6-6.6,17.9-15.4c0.6-4,1.2-8,1.7-12.1c6.9-2.1,13.5-4.8,19.8-8.2c3.3,2.5,6.5,5,9.8,7.3
			c7.2,5.3,17.3,4.5,23.6-1.8l15.8-15.8c6.3-6.3,7.1-16.5,1.8-23.6c-2.4-3.2-4.9-6.5-7.3-9.8c3.4-6.3,6.1-12.9,8.2-19.8
			c4.1-0.5,8.1-1.1,12.1-1.7c8.8-1.3,15.4-9,15.4-17.9v-22.3C512,109.9,505.4,102.2,496.6,100.9z M479.3,139.5
			c-7.3,0.9-13.2,6.1-15.2,13.1c-1.9,6.7-4.5,13.2-8,19.3c-3.6,6.3-3.1,14.2,1.4,20c2.3,2.9,4.5,5.9,6.7,8.8l-11.4,11.4
			c-2.9-2.2-5.9-4.4-8.8-6.7c-5.8-4.5-13.7-5-20-1.4c-6.1,3.5-12.6,6.1-19.3,8c-7,1.9-12.2,7.9-13.1,15.2c-0.5,3.7-1,7.3-1.5,10.9
			H374c-0.5-3.6-1-7.3-1.5-10.9c-0.9-7.3-6.1-13.2-13.1-15.2c-6.7-1.9-13.2-4.5-19.3-8c-6.3-3.6-14.2-3.1-20,1.4
			c-2.9,2.2-5.9,4.5-8.8,6.7l-11.4-11.4c2.2-2.9,4.4-5.9,6.7-8.8c4.5-5.8,5-13.7,1.4-20c-3.5-6.1-6.1-12.6-8-19.3
			c-1.9-7-7.9-12.2-15.2-13.1c-3.7-0.5-7.3-1-10.9-1.5v-16.1c3.6-0.5,7.3-1,10.9-1.5c7.3-0.9,13.2-6.1,15.2-13.1
			c1.9-6.7,4.5-13.2,8-19.3c3.6-6.3,3.1-14.2-1.4-20c-2.3-2.9-4.5-5.9-6.7-8.8l11.4-11.4c2.9,2.2,5.9,4.4,8.8,6.7
			c5.8,4.5,13.7,5,20,1.4c6.1-3.5,12.6-6.1,19.3-8c7-1.9,12.2-7.9,13.1-15.2c0.5-3.7,1-7.3,1.5-10.9h16.1c0.5,3.6,1,7.3,1.5,10.9
			c0.9,7.3,6.1,13.2,13.1,15.2c6.7,1.9,13.2,4.5,19.3,8c6.3,3.6,14.2,3,20-1.4c2.9-2.2,5.9-4.5,8.8-6.7l11.4,11.4
			c-2.2,2.9-4.4,5.9-6.7,8.8c-4.5,5.8-5,13.7-1.4,20c3.5,6.1,6.1,12.6,8,19.3c1.9,7,7.9,12.2,15.2,13.1c3.7,0.5,7.3,1,10.9,1.5V138
			h0C486.7,138.5,483,139.1,479.3,139.5z M382,83.6c-25.6,0-46.4,20.8-46.4,46.4c0,25.6,20.8,46.4,46.4,46.4s46.4-20.8,46.4-46.4
			C428.4,104.4,407.6,83.6,382,83.6z M382,155.7c-14.2,0-25.8-11.6-25.8-25.8s11.6-25.8,25.8-25.8s25.8,11.6,25.8,25.8
			C407.8,144.2,396.2,155.7,382,155.7z"/>
	</g>
</g>
</svg>
