<?xml version="1.0" encoding="utf-8"?>
<!-- Generator: Adobe Illustrator 21.0.0, SVG Export Plug-In . SVG Version: 6.00 Build 0)  -->
<svg version="1.1" id="Layer_1" xmlns="http://www.w3.org/2000/svg" xmlns:xlink="http://www.w3.org/1999/xlink" x="0px" y="0px"
	 viewBox="0 0 165.4 182.8" style="enable-background:new 0 0 165.4 182.8;" xml:space="preserve">
<style type="text/css">
	.st0{fill:#9E9E9E;}
	.st1{fill:#6E6E6E;}
</style>
<g>
	<path class="st0" d="M133.2,131.7c-0.2,1.8-0.7,3.2-1.2,4.7c-5.4,15-15.1,26.4-28.8,34.5c-6.5,3.8-13.4,6.7-20.7,8.7
		c-2,0.5-3.9,0.6-5.9,0.3c-6.6-1-12.9-2.8-19.1-5.2c-1.9-0.7-2.1-1.1-1.3-3c1.4-3.5,2.1-7,1.4-10.8c-1.2-7-6.8-12.7-13.9-14.1
		c-6-1.2-11.1,0.4-15.5,4.5c-0.2,0.2-0.4,0.4-0.6,0.5c-1.4,1.2-1.9,1.2-3.1-0.2c-11.5-13.2-18.8-28.3-21.2-45.6
		c-2.5-18,0.2-35.2,8.2-51.5c0.9-1.8,1.9-3.6,3-5.5c0.7,0.6,0.4,1.1,0.3,1.5c-1.1,6.2-1.6,12.5-1.3,18.8
		c0.6,15.5,5.6,29.3,15.6,41.2c1.6,2,3.4,3.8,5.2,5.6c2.5,2.3,4.6,4.9,6.4,7.8c2.6,4,5.6,7.7,9,11.1c8.3,8.1,18.2,13.1,29.7,15.1
		c17.1,3,32.3-1.3,46-11.8c2.1-1.6,4.1-3.5,5.9-5.4C131.8,132.5,132.2,131.9,133.2,131.7z"/>
	<path class="st1" d="M34.4,111c-1.2-1.1-2.3-2.1-3.3-3.3c-6-7.1-9.9-15.3-12.3-24.2c-2.5-9.6-2.7-19.2-1.4-29
		c0.4-3.1,1-6.2,1.7-9.2c1-4.3,3-8,6.1-11.1c3-3,6-5.9,9.2-8.6c0.5-0.4,1-0.8,1.5-1.2c1.1-0.8,1.6-0.7,2.4,0.4
		c0.3,0.4,0.6,0.8,0.9,1.3c4.5,6.3,12.7,9,19.8,6.5c7.5-2.7,12.5-9.9,12.1-17.7c-0.1-1.3-0.4-2.6-0.7-3.9c-0.5-2.2-0.2-2.6,1.9-3
		c3.9-0.8,7.9-1.3,11.9-1.5c19.2-0.9,36.9,3.8,52.9,14.3c10.3,6.8,18.8,15.4,25.4,25.8c0.3,0.5,0.6,1,0.9,1.5c0.1,0.1,0,0.2,0.1,0.5
		c-0.7,0.1-1-0.4-1.4-0.8c-7.8-6.2-16.3-11.1-25.9-14.1c-14.6-4.5-29-3.9-43.3,1.2c-1.9,0.7-3.8,1.1-5.8,1.2
		C69.4,37,54.8,44.5,43.9,58.7C34.7,70.5,31.1,84,32.3,98.8c0.3,3.4,1,6.8,1.9,10.1C34.4,109.6,34.8,110.1,34.4,111z"/>
	<path class="st0" d="M40.1,177.6c-7.5,0-13.4-6-13.5-13.7c-0.1-6.6,4.8-13.7,13.5-13.7c7.8,0,13.8,5.7,13.9,13.8
		C54.1,171.5,47.7,177.7,40.1,177.6z"/>
	<path class="st1" d="M53.6,29.4c-7.6,0-13.7-5.9-13.7-13.5c-0.1-7.6,6-13.8,13.6-13.8c7.7,0,13.7,6,13.7,13.7
		C67.2,23.3,61.3,29.3,53.6,29.4z"/>
</g>
</svg>
