<?xml version="1.0" encoding="utf-8"?>
<!-- Generator: Adobe Illustrator 21.0.0, SVG Export Plug-In . SVG Version: 6.00 Build 0)  -->
<svg version="1.1" id="Shape_1_1_" xmlns="http://www.w3.org/2000/svg" xmlns:xlink="http://www.w3.org/1999/xlink" x="0px" y="0px"
	 viewBox="0 0 424 372" style="enable-background:new 0 0 424 372;" xml:space="preserve">
<style type="text/css">
	.st0{fill-rule:evenodd;clip-rule:evenodd;fill:#666666;}
</style>
<g id="Shape_1">
	<g>
		<path class="st0" d="M423,343.2l-16.8-58.5c-0.4-1.2-1.2-2.4-2-3.2c-10.4-31.6-36-56.1-68.5-64.5l-4.8-0.8
			c-7.2-2-15.2,0.4-20.4,6.4c-17.6,20-40,21.6-63.7,21.6c-23.6,0-46-1.6-63.7-21.6c-5.2-6-13.2-8.4-20.4-6.4l-4.8,1.2
			c-24.4,6.4-45.2,22-58.5,42.8H49c-0.4,0-0.4,0-0.8-0.4c0-0.4-0.4-0.8-0.4-1.6L58.3,221c9.2-29.2,26.8-38,61.3-46.9
			c1.6-0.4,2.8-1.2,3.6-2c2.8,2.4,6,4.4,9.2,6c1.2,0.8,2.4,0.8,3.6,0.8c2.8,0,5.6-1.6,7.2-4.4c2-4,0.4-8.8-3.6-10.8
			c-18.4-9.6-31.6-36.8-31.6-64.9c0-24.8,20.4-45.2,45.2-45.2c4.8,0,9.2,0.8,13.6,2c-4.4,10.8-6.8,22.4-6.8,34.8
			c0,68.5,41.2,126.1,90.1,126.1c48,0,90.5-58.9,90.5-126.1C340.5,40.4,300.1,0,250,0c-31.6,0-59.7,16.4-75.7,41.2
			c-6.8-2.4-14-3.6-21.2-3.6c-21.6,0-40.8,11.6-51.6,28.8c-0.8-0.8-1.6-1.2-2.4-1.6c-6-3.2-12-4.4-18.8-4.4
			c-22.4-0.4-40.4,17.6-40.4,40c0,12.8,3.6,24.8,9.2,34.4c-18.4,4.8-34.8,12-42.4,36.4l-6.4,23.2c-1.2,4-0.4,8.4,2,11.6
			c2.4,3.6,6.8,5.6,11.2,5.6h30.8c-0.4,1.6-1.2,3.2-1.6,4.8l-10.4,37.6c-1.6,5.2-0.4,10.8,3.2,15.2c3.2,4.4,8,6.8,13.6,6.8h42.4
			c-1.2,2.8-2,5.6-2.8,8.4l-16.8,58.9c-1.6,6.8-0.4,14,4,19.6c4.4,5.6,10.8,8.8,17.6,8.8h307.9c6.8,0,13.6-3.2,17.6-8.8
			C423.4,357.6,425,350.4,423,343.2z M184,56.9c0.4-0.4,0.8-0.8,1.2-1.6c0.4-0.4,0.4-1.2,0.8-1.6C198.4,31.2,222.4,16,250,16
			c33.2,0,61.3,22,70.9,52.1c-14,2.8-28.8-2.8-37.6-14.8c-2.8-3.6-7.6-4.4-11.2-1.6c-1.6,1.2-2.4,2.4-2.8,4
			c-0.4,0.4-0.4,0.8-0.8,1.2c-11.2,22.8-48.8,32.4-91.7,24C178,72.5,180.4,64.5,184,56.9z M206.4,99.7c32,0,58.5-10,72.1-28.8
			c10,8.8,22.4,13.6,35.6,13.6c3.2,0,6.8-0.4,10-1.2c0.4,2.4,0.4,4.4,0.4,6.8c0,58.9-34.8,110.5-74.5,110.5
			c-38,0-71.3-47.7-74.1-103.7C186.4,98.9,196.8,99.7,206.4,99.7z M16.6,195.8l5.6-20c4.8-16.4,14.8-21.2,34.8-26
			c1.2-0.4,2.4-0.8,3.2-1.6c2,1.6,3.6,2.8,6,4c1.2,0.8,2.4,0.8,3.6,0.8c2.8,0,5.6-1.6,7.2-4.4c2-4,0.4-8.8-3.2-10.8
			c-10.4-5.6-18-21.2-18-37.2c0-13.6,10.8-24.4,24.4-24.4c4.4,0,8,0.8,11.6,2.8c1.2,0.4,2,0.8,3.2,0.8c-2,6-3.2,12.4-3.2,19.2
			c0,22.8,7.6,45.2,19.6,60.9c-24,6-45.2,14-59.3,36H16.6z M406.6,353.6c-0.8,0.8-2.4,2.4-5.2,2.4H93.5c-2.8,0-4.4-1.6-5.2-2.4
			c-1.2-1.6-1.6-4-1.2-5.6l16.8-58.5c8-27.6,30-49.3,58.1-56.5l4.8-1.2c1.2-0.4,3.2,0.4,4.4,1.6c22,25.2,49.2,27.2,75.7,27.2
			c26.4,0,53.7-2,75.7-27.2c1.2-1.2,2.8-2,4.8-1.6l4.8,1.2c27.6,7.2,50,28.8,58.1,56.5l7.2,24.8c0.4,1.2,0.8,2,1.6,2.8l8.8,30.4
			C408.2,349.6,407.8,352,406.6,353.6z"/>
	</g>
</g>
</svg>
