<?xml version="1.0" encoding="utf-8"?>
<!-- Generator: Adobe Illustrator 21.0.0, SVG Export Plug-In . SVG Version: 6.00 Build 0)  -->
<svg version="1.1" id="Shape_1_1_" xmlns="http://www.w3.org/2000/svg" xmlns:xlink="http://www.w3.org/1999/xlink" x="0px" y="0px"
	 viewBox="0 0 390 512" style="enable-background:new 0 0 390 512;" xml:space="preserve">
<style type="text/css">
	.st0{fill-rule:evenodd;clip-rule:evenodd;fill:#333333;}
</style>
<g id="Shape_1">
	<g>
		<path class="st0" d="M313.5,332.5c-0.4,0-59.4,1.7-68.2-61.5c9.7-6.8,18.7-15.6,26.6-26.3c15.4-20.8,25.3-46.9,28.8-75.2
			c1.2-1.1,2.2-2.5,2.9-4.1c6.4-15.2,9.6-31.5,9.6-48.3C313.4,52.5,264.6,0,204.7,0c-15.7,0-30.9,3.6-45.2,10.7
			c-5.5,0.4-10.8,1.4-16,2.9C118.8,20.7,98.8,38.9,87.1,65c-11.4,25.3-13.7,55-6.3,83.7c1.5,6.1,3.5,12,5.9,17.7
			c0.6,1.5,1.6,2.9,2.7,3.9C95,214.4,116,251,144.6,270.9c-8.8,63.3-67.7,61.5-68.2,61.6C34.1,333.9,0,368.8,0,411.5v88.9
			c0,6.4,5.2,11.5,11.5,11.5h366.9c6.4,0,11.5-5.2,11.5-11.5v-88.9C390,368.8,355.9,333.9,313.5,332.5z M149.9,35.8
			c4.2-1.2,8.7-1.9,13.2-2.1c1.7-0.1,3.3-0.5,4.8-1.3c11.7-6.1,24.1-9.2,36.8-9.2c47.2,0,85.6,42.2,85.6,94.1c0,1.6,0,3.1-0.1,4.6
			c-9.2-9.3-21.9-15.1-35.9-15.1h-78.6c-4.7,0-9.1-1.5-12.8-4.2c-3.2-2.4-5.6-5.6-7.1-9.2c-2.3-5.7-7.9-9.2-14-8.8
			c-6.1,0.4-11.3,4.6-12.8,10.6c-4.6,17.5-13.6,33.6-26.1,46.7C91.2,94,112.1,46.6,149.9,35.8z M139.8,235.1
			c-15-18.3-24.8-43.1-28-70.2c14.6-13,26.1-29.1,33.6-47c1.1,1,2.3,2,3.6,3c7.7,5.8,17,8.8,26.6,8.8h78.6c11.1,0,20.7,6.7,25,16.2
			c0,0.1,0,0.2,0,0.2c0,65.1-37.8,118-84.2,118C174.8,264.3,155.2,253.9,139.8,235.1z M166.3,282.2c9.1,3.3,18.8,5.1,28.7,5.1
			c9.8,0,19.5-1.7,28.7-5c4.2,22,16.5,41.2,33.5,54.4l-60.6,86.2c-0.4,0.6-0.9,0.8-1.6,0.8c-0.7,0-1.2-0.3-1.6-0.8l-60.6-86.2
			C149.9,323.4,162.1,304.2,166.3,282.2z M366.9,488.9H23.1v-77.4c0-30.9,25.2-56.1,56.1-56.1c0.4,0,19-0.5,33.7-7.1l61.7,87.8
			c4.7,6.7,12.4,10.7,20.5,10.7c0,0,0,0,0,0c8.2,0,15.8-4,20.5-10.7l61.7-87.8c16.7,7.1,33.2,7.1,33.6,7.1
			c30.9,0,56.1,25.2,56.1,56.1V488.9z"/>
	</g>
</g>
</svg>
