<?xml version="1.0" encoding="utf-8"?>
<!-- Generator: Adobe Illustrator 21.0.0, SVG Export Plug-In . SVG Version: 6.00 Build 0)  -->
<svg version="1.1" id="Shape_1_1_" xmlns="http://www.w3.org/2000/svg" xmlns:xlink="http://www.w3.org/1999/xlink" x="0px" y="0px"
	 viewBox="0 0 228 230" style="enable-background:new 0 0 228 230;" xml:space="preserve">
<style type="text/css">
	.st0{fill-rule:evenodd;clip-rule:evenodd;fill:#333333;}
</style>
<g id="Shape_1">
	<g>
		<path class="st0" d="M165.2,156.9c-8.8,0-16,7.2-16,16c0,8.8,7.2,16,16,16c8.8,0,16-7.2,16-16S174,156.9,165.2,156.9z
			 M165.2,180.9c-4.4,0-8-3.6-8-8s3.6-8,8-8c4.4,0,8,3.6,8,8S169.6,180.9,165.2,180.9z M209,160.9h-1.7c-0.9-3.3-2.2-6.5-3.9-9.5
			l1.2-1.2c4.7-4.7,4.7-12.3,0-17c-2.3-2.3-5.3-3.5-8.5-3.5c-3.2,0-6.2,1.3-8.4,3.5l-1.2,1.2c-3-1.7-6.1-3-9.4-3.9v-1.7
			c0-6.6-5.4-12-12-12c-6.6,0-12,5.4-12,12v1.7c-3.3,0.9-6.4,2.2-9.4,3.9l-1.2-1.2c-4.7-4.7-12.2-4.7-16.9,0
			c-2.3,2.3-3.5,5.3-3.5,8.5c0,0,0,0,0,0c0,3.2,1.2,6.2,3.5,8.5l1.2,1.2c-1.7,3-3,6.2-3.9,9.5h-1.7c-6.6,0-12,5.4-12,12
			c0,6.6,5.4,12,12,12h1.7c0.9,3.3,2.2,6.5,3.9,9.5l-1.2,1.2c-4.7,4.7-4.7,12.3,0,17c2.3,2.3,5.3,3.5,8.5,3.5c3.2,0,6.2-1.3,8.4-3.5
			l1.2-1.2c3,1.7,6.1,3,9.4,3.9v1.7c0,6.6,5.4,12,12,12c6.6,0,12-5.4,12-12v-1.7c3.3-0.9,6.4-2.2,9.4-3.9l1.2,1.2
			c4.7,4.7,12.2,4.7,16.9,0c2.3-2.3,3.5-5.3,3.5-8.5c0,0,0,0,0,0c0-3.2-1.2-6.2-3.5-8.5l-1.2-1.2c1.7-3,3-6.2,3.9-9.5h1.7
			c6.6,0,12-5.4,12-12C221,166.3,215.6,160.9,209,160.9z M209,176.9h-4.8c-1.9,0-3.5,1.3-3.9,3.2c-0.9,4.5-2.7,8.8-5.2,12.7
			c-0.4,0.7-0.7,1.4-0.7,2.2c0,1,0.4,2.1,1.2,2.8l3.4,3.4c0.8,0.8,1.2,1.8,1.2,2.8c0,0,0,0,0,0c0,1.1-0.4,2.1-1.2,2.8
			c-1.6,1.6-4.1,1.6-5.6,0l-3.4-3.4c-1.3-1.3-3.4-1.6-5-0.5c-3.9,2.6-8.1,4.3-12.6,5.2c-1.9,0.4-3.2,2-3.2,3.9v4.8c0,2.2-1.8,4-4,4
			s-4-1.8-4-4v-4.8c0-1.9-1.3-3.5-3.2-3.9c-4.5-0.9-8.8-2.7-12.6-5.2c-1.6-1-3.7-0.8-5,0.5l-3.4,3.4c-0.8,0.8-1.7,1.2-2.8,1.2
			c-1.1,0-2.1-0.4-2.8-1.2c-1.6-1.6-1.6-4.1,0-5.7l3.4-3.4c1.3-1.4,1.6-3.5,0.5-5c-2.6-3.9-4.3-8.1-5.2-12.7c-0.4-1.9-2-3.2-3.9-3.2
			h-4.8c-2.2,0-4-1.8-4-4c0-2.2,1.8-4,4-4h4.8c1.9,0,3.5-1.3,3.9-3.2c0.9-4.5,2.7-8.8,5.2-12.7c1-1.6,0.8-3.7-0.5-5l-3.4-3.4
			c-0.8-0.8-1.2-1.8-1.2-2.8c0,0,0,0,0,0c0-1.1,0.4-2.1,1.2-2.8c1.6-1.6,4.1-1.6,5.6,0l3.4,3.4c1.3,1.3,3.4,1.6,5,0.5
			c3.9-2.6,8.1-4.3,12.6-5.3c1.9-0.4,3.2-2,3.2-3.9v-4.8c0-2.2,1.8-4,4-4s4,1.8,4,4v4.8c0,1.9,1.3,3.5,3.2,3.9
			c4.5,0.9,8.8,2.7,12.6,5.3c1.6,1.1,3.7,0.8,5-0.5l3.4-3.4c0.8-0.8,1.7-1.2,2.8-1.2c1.1,0,2.1,0.4,2.8,1.2c1.6,1.6,1.6,4.1,0,5.7
			l-3.4,3.4c-1.3,1.4-1.5,3.5-0.5,5c2.6,3.9,4.3,8.1,5.2,12.7c0.4,1.9,2,3.2,3.9,3.2h4.8c2.2,0,4,1.8,4,4
			C213,175.1,211.2,176.9,209,176.9z M124.7,74.6c7.5-1.9,12.6-8.7,12.6-16.2c0-1.3-0.2-2.7-0.5-4c-2.2-8.9-11.2-14.3-20.1-12.1
			c-4.3,1.1-7.9,3.8-10.2,7.6c-2.3,3.8-3,8.3-1.9,12.6c1.1,4.3,3.8,8,7.5,10.2C116,75,120.4,75.7,124.7,74.6z M116.3,65.8
			c-2-1.2-3.4-3.1-3.9-5.3c-0.2-0.7-0.3-1.4-0.3-2.1c0-1.5,0.4-3.1,1.2-4.4c1.2-2,3.1-3.4,5.3-3.9c2.2-0.6,4.5-0.2,6.5,1
			c2,1.2,3.4,3.1,3.9,5.3c1.1,4.6-1.7,9.3-6.3,10.5C120.6,67.4,118.3,67,116.3,65.8z M119.9,106.4c0.8,3.2,2.8,5.9,5.6,7.6
			c2.8,1.7,6.2,2.2,9.4,1.4c6.6-1.7,10.7-8.4,9-15.1l-0.5-1.9c3.2-1.8,6.2-4,8.8-6.6l1.6,1c2.8,1.7,6.2,2.2,9.4,1.4
			c3.2-0.8,5.9-2.8,7.6-5.7c1.7-2.9,2.2-6.2,1.4-9.4c-0.8-3.2-2.8-5.9-5.6-7.6l-1.6-1c1-3.6,1.5-7.2,1.6-10.9l1.9-0.5
			c3.2-0.8,5.9-2.8,7.6-5.7c1.2-2,1.8-4.2,1.8-6.4c0-1-0.1-2-0.4-3c-0.8-3.2-2.8-6-5.6-7.7c-2.8-1.7-6.2-2.2-9.4-1.4l-1.9,0.5
			c-1.8-3.2-4-6.2-6.5-8.9l1-1.6c1.7-2.8,2.2-6.2,1.4-9.4c-0.8-3.2-2.8-5.9-5.6-7.6c-2.8-1.7-6.2-2.2-9.4-1.4
			c-3.2,0.8-5.9,2.8-7.6,5.7l-1,1.6c-3.6-1-7.2-1.5-10.9-1.6l-0.5-1.9c-1.7-6.6-8.4-10.7-15-9c-6.6,1.7-10.7,8.4-9,15.1l0.5,1.9
			c-3.2,1.8-6.2,4-8.8,6.6l-1.6-1c-2.8-1.7-6.2-2.2-9.4-1.4c-3.2,0.8-5.9,2.8-7.6,5.7c-1.7,2.9-2.2,6.2-1.4,9.4
			c0.8,3.2,2.8,5.9,5.6,7.6l1.6,1c-1,3.6-1.5,7.2-1.6,10.9l-1.9,0.5c-6.6,1.7-10.7,8.4-9,15.1c1.7,6.7,8.4,10.7,15,9.1l1.9-0.5
			c1.8,3.2,4,6.2,6.5,8.9l-1,1.6c-1.7,2.8-2.2,6.2-1.4,9.4c0.8,3.2,2.8,5.9,5.6,7.6c2.8,1.7,6.2,2.2,9.4,1.4
			c3.2-0.8,5.9-2.8,7.6-5.7l1-1.6c3.6,1,7.2,1.5,10.9,1.6L119.9,106.4z M108.1,94.4c-1.8-0.6-3.8,0.1-4.8,1.7l-2.6,4.4
			c-0.6,1-1.6,1.7-2.7,2c-1.1,0.3-2.3,0.1-3.3-0.5c-1-0.6-1.7-1.6-2-2.7c-0.3-1.1-0.1-2.3,0.5-3.3l2.6-4.4c1-1.6,0.7-3.7-0.7-5
			c-3.6-3.3-6.5-7.2-8.6-11.7c-0.8-1.7-2.7-2.6-4.6-2.2L77,73.9c-2.3,0.6-4.7-0.9-5.3-3.2c-0.6-2.4,0.8-4.8,3.2-5.4l4.9-1.2
			c1.8-0.5,3.1-2.2,3-4.1c-0.2-4.9,0.5-9.7,2.1-14.3c0.6-1.8-0.1-3.8-1.7-4.8l-4.3-2.6c-1-0.6-1.7-1.6-2-2.7
			c-0.3-1.1-0.1-2.3,0.5-3.4c0.6-1,1.6-1.7,2.7-2c1.1-0.3,2.3-0.1,3.3,0.5l4.3,2.6c1.6,1,3.7,0.7,5-0.7c3.3-3.6,7.2-6.5,11.6-8.6
			c1.7-0.8,2.6-2.7,2.2-4.6l-1.2-4.9c-0.6-2.4,0.8-4.7,3.2-5.3c2.4-0.6,4.7,0.8,5.3,3.2l1.2,4.9c0.5,1.8,2.1,3.1,4,3
			c4.9-0.2,9.7,0.5,14.3,2.1c1.8,0.6,3.8-0.1,4.8-1.7l2.6-4.4c0.6-1,1.6-1.7,2.7-2c1.1-0.3,2.3-0.1,3.3,0.5c1,0.6,1.7,1.6,2,2.7
			c0.3,1.1,0.1,2.3-0.5,3.3l-2.6,4.4c-1,1.6-0.7,3.7,0.7,5c3.6,3.3,6.5,7.2,8.6,11.7c0.8,1.7,2.7,2.6,4.6,2.2l4.9-1.2
			c1.1-0.3,2.3-0.1,3.3,0.5c1,0.6,1.7,1.6,2,2.7c0.3,1.1,0.1,2.3-0.5,3.3c-0.6,1-1.6,1.7-2.7,2l-4.9,1.2c-1.8,0.4-3,2.1-3,3.9
			c0,0.1,0,0.1,0,0.2c0.2,4.9-0.5,9.7-2.1,14.3c-0.6,1.8,0.1,3.8,1.7,4.8l4.3,2.6c1,0.6,1.7,1.6,2,2.7c0.3,1.1,0.1,2.3-0.5,3.4
			c-0.6,1-1.6,1.7-2.7,2c-1.1,0.3-2.3,0.1-3.3-0.5l-4.3-2.6c-1.6-1-3.7-0.7-5,0.7c-3.3,3.6-7.2,6.5-11.6,8.6
			c-1.7,0.8-2.6,2.7-2.2,4.6l1.2,4.9c0.6,2.4-0.8,4.8-3.2,5.4c-1.1,0.3-2.3,0.1-3.3-0.5s-1.7-1.6-2-2.7l-1.2-4.9
			c-0.5-1.8-2.2-3.1-4-3C117.5,96.8,112.7,96,108.1,94.4z M63.7,143.3L63.7,143.3c-6.3-4.6-15.1-3.2-19.7,3.1
			c-4.6,6.3-3.2,15.2,3.1,19.8c3,2.2,6.8,3.1,10.5,2.5c3.7-0.6,7-2.6,9.2-5.7c1.8-2.5,2.7-5.4,2.7-8.3
			C69.5,150.4,67.5,146.1,63.7,143.3z M60.4,158.4c-1,1.3-2.4,2.2-4,2.5c-1.6,0.3-3.2-0.1-4.6-1.1c-1.7-1.2-2.5-3.1-2.5-5
			c0-1.3,0.4-2.5,1.2-3.6c2-2.7,5.8-3.4,8.6-1.4C61.7,151.8,62.3,155.7,60.4,158.4z M90.4,138.3l-0.9,0.1c-1.1-2.4-2.5-4.6-4.1-6.7
			l0.6-0.8c1.7-2.3,2.4-5.2,1.9-8c-0.4-2.8-2-5.3-4.3-7c-2.3-1.7-5.2-2.4-8-1.9c-2.8,0.4-5.3,2-7,4.3L68,119c-2.5-0.9-5-1.5-7.6-1.8
			l-0.1-0.9c-0.4-2.8-2-5.3-4.3-7c-2.3-1.7-5.2-2.4-8-1.9c-5.9,0.9-9.9,6.5-8.9,12.3l0.1,0.9c-2.4,1.1-4.6,2.5-6.7,4.1l-0.8-0.6
			c-2.3-1.7-5.2-2.4-8-1.9c-2.8,0.4-5.3,2-7,4.3c-1.7,2.3-2.4,5.2-1.9,8c0.4,2.8,2,5.3,4.3,7l0.8,0.6c-0.9,2.5-1.5,5.1-1.8,7.7
			L17,150c-5.8,0.9-9.8,6.5-8.9,12.3c0.5,2.9,2,5.4,4.3,7.1c2.3,1.7,5.1,2.4,8,1.9l0.9-0.1c1.1,2.4,2.5,4.6,4.1,6.7l-0.6,0.8
			c-3.5,4.8-2.4,11.6,2.4,15.1c2.3,1.7,5.2,2.4,8,1.9c2.8-0.4,5.3-2,7-4.3l0.6-0.8c2.5,0.9,5,1.5,7.6,1.8l0.1,0.9
			c0.9,5.9,6.4,9.9,12.3,9c5.8-0.9,9.9-6.5,8.9-12.3l-0.1-0.9c2.4-1.1,4.6-2.5,6.7-4.1l0.8,0.6c4.8,3.5,11.5,2.4,15-2.4
			c3.5-4.8,2.4-11.6-2.4-15.1l-0.8-0.6c0.9-2.5,1.5-5.1,1.8-7.7l0.9-0.2c2.8-0.4,5.3-2,7-4.3c1.3-1.9,2-4.1,2-6.3
			c0-0.6,0-1.1-0.1-1.7C101.7,141.4,96.2,137.4,90.4,138.3z M94.3,150.6c-0.4,0.6-1.1,1-1.8,1.1l-4,0.6c-1.9,0.3-3.3,1.9-3.4,3.8
			c-0.2,3.8-1.1,7.6-2.6,11.1c-0.2,0.5-0.4,1.1-0.4,1.7c0,1.2,0.6,2.5,1.6,3.2l3.3,2.4c1.2,0.9,1.5,2.6,0.6,3.9
			c-0.9,1.2-2.6,1.5-3.8,0.6l-3.3-2.4c-1.5-1.1-3.6-1-5,0.3c-2.8,2.6-6.1,4.6-9.6,5.9c-1.8,0.7-2.8,2.5-2.5,4.4l0.6,4
			c0.3,1.5-0.8,2.9-2.3,3.2c-1.5,0.2-2.9-0.8-3.2-2.3l-0.6-4c-0.3-1.9-1.9-3.3-3.8-3.4c-3.8-0.2-7.5-1.1-11-2.6
			c-1.7-0.8-3.8-0.3-4.9,1.3l-2.4,3.3c-0.4,0.6-1.1,1-1.8,1.1c-0.7,0.1-1.5-0.1-2.1-0.5c-1.2-0.9-1.5-2.6-0.6-3.9l2.4-3.3
			c1.1-1.5,1-3.7-0.3-5.1c-2.6-2.8-4.6-6.1-5.9-9.7c-0.7-1.8-2.5-2.9-4.4-2.6l-4,0.6c-0.7,0.1-1.5-0.1-2-0.5c-0.6-0.4-1-1.1-1.1-1.8
			c-0.3-1.5,0.8-2.9,2.3-3.2l4-0.6c1.9-0.3,3.3-1.9,3.4-3.8c0.2-3.8,1.1-7.6,2.6-11.1c0.8-1.7,0.3-3.8-1.3-4.9l-3.3-2.4
			c-0.6-0.4-1-1.1-1.1-1.8c-0.1-0.7,0.1-1.5,0.5-2.1c0.4-0.6,1.1-1,1.8-1.1c0.7-0.1,1.4,0.1,2,0.5l3.3,2.4c1.5,1.1,3.6,1,5-0.3
			c2.8-2.6,6.1-4.6,9.7-5.9c1.8-0.7,2.8-2.5,2.5-4.4l-0.6-4c-0.3-1.5,0.8-2.9,2.3-3.2c0.7-0.1,1.5,0.1,2.1,0.5
			c0.6,0.4,1,1.1,1.1,1.8l0.6,4c0.3,1.9,1.9,3.3,3.8,3.4c3.8,0.2,7.5,1.1,11,2.7c1.7,0.8,3.8,0.2,4.9-1.3L75,123
			c0.4-0.6,1.1-1,1.8-1.1c0.7-0.1,1.5,0.1,2.1,0.5c0.6,0.4,1,1.1,1.1,1.8c0.1,0.7-0.1,1.5-0.5,2.1l-2.4,3.3c-1.1,1.5-1,3.7,0.3,5.1
			c2.6,2.8,4.6,6.1,5.9,9.7c0.7,1.8,2.5,2.8,4.4,2.6l4-0.6c1.5-0.2,2.9,0.8,3.2,2.3C94.9,149.3,94.7,150,94.3,150.6z"/>
	</g>
</g>
</svg>
