<?xml version="1.0" encoding="utf-8"?>
<!-- Generator: Adobe Illustrator 21.0.0, SVG Export Plug-In . SVG Version: 6.00 Build 0)  -->
<svg version="1.1" id="Forma_1_1_" xmlns="http://www.w3.org/2000/svg" xmlns:xlink="http://www.w3.org/1999/xlink" x="0px" y="0px"
	 viewBox="0 0 61 60" style="enable-background:new 0 0 61 60;" xml:space="preserve">
<style type="text/css">
	.st0{fill:#333333;}
</style>
<g id="Forma_1">
	<g>
		<path class="st0" d="M30.9,26c3.8,0,7-3.1,7-7s-3.1-7-7-7s-7,3.1-7,7S27,26,30.9,26z M30.9,14c2.7,0,5,2.2,5,5s-2.2,5-5,5
			s-5-2.2-5-5C25.9,16.2,28.1,14,30.9,14z M50.1,37H43l3-4.4c5.7-7.7,4.9-20.3-1.8-27C40.6,2,35.8,0,30.7,0s-9.9,2-13.5,5.6
			c-6.7,6.7-7.5,19.3-1.8,27l3.1,4.4H11L0,60h61L50.1,37z M17,31.4c-5.2-6.9-4.4-18.3,1.6-24.4c3.2-3.2,7.5-5,12.1-5s8.9,1.8,12.1,5
			c6,6,6.8,17.4,1.6,24.4L30.7,51.2L20.8,37L17,31.4z M12.2,39h7.6l10.9,15.8L41.6,39h7.3l9,19H3.2L12.2,39z"/>
	</g>
</g>
</svg>
