<?xml version="1.0" encoding="utf-8"?>
<!-- Generator: Adobe Illustrator 21.0.0, SVG Export Plug-In . SVG Version: 6.00 Build 0)  -->
<svg version="1.1" id="Forma_1_1_" xmlns="http://www.w3.org/2000/svg" xmlns:xlink="http://www.w3.org/1999/xlink" x="0px" y="0px"
	 viewBox="0 0 550 550" style="enable-background:new 0 0 550 550;" xml:space="preserve">
<style type="text/css">
	.st0{fill-rule:evenodd;clip-rule:evenodd;fill:#333333;}
</style>
<g id="Forma_1">
	<g>
		<path class="st0" d="M470.3,81.6c-0.5-0.5-0.5-1.4-0.9-1.9c-0.5-0.5-1.4-0.9-1.9-1.4C417.7,29.9,349.9,0,275,0
			S132.3,30.3,82.5,79.2c-0.5,0.5-0.9,0.5-1.9,0.9c-0.5,0.5-0.5,0.9-0.9,1.4C30.3,130.9,0,199.6,0,275c0,151.7,123.3,275,275,275
			s275-123.3,275-275C550,199.6,519.7,131.3,470.3,81.6z M95.3,121.9l36.5,36.5c3.8,3.8,8.5,5.7,13.8,5.7c4.7,0,10-1.9,13.8-5.7
			c7.6-7.6,7.6-19.9,0-27.5l-36.5-36.5c36.5-30.8,82.5-50.7,132.8-55V91c0,10.9,8.5,19.4,19.4,19.4s19.4-8.5,19.4-19.4V39.4
			c50.3,4.3,96.3,24.2,132.8,55l-36,36.5c-7.6,7.6-7.6,19.9,0,27.5c3.8,3.8,8.5,5.7,13.8,5.7c4.7,0,10-1.9,13.8-5.7l36.5-36.5
			c31.3,36.5,51.7,83,55.5,133.7H341.9c-3.8-13.7-11.9-25.6-22.3-34.1l52.6-120c4.3-10,0-21.3-10-25.6c-10-4.3-21.3,0-25.6,10
			l-52.6,120c-2.8-0.5-6.2-0.5-9-0.5c-31.8,0-58.3,21.3-66.9,50.3H39.4C43.6,204.8,63.5,158.4,95.3,121.9z M305.8,275
			c0,17.1-13.8,30.8-30.8,30.8s-30.8-13.8-30.8-30.8s13.8-30.8,30.8-30.8S305.8,257.9,305.8,275z M275,511.6
			c-123.8,0-225.7-95.8-235.6-217.2h168.3c8.5,28.9,35.1,50.3,66.9,50.3c31.8,0,58.8-21.3,66.9-50.3h168.3
			C500.7,415.8,398.8,511.6,275,511.6z"/>
	</g>
</g>
</svg>
