<?xml version="1.0" encoding="utf-8"?>
<!-- Generator: Adobe Illustrator 21.0.0, SVG Export Plug-In . SVG Version: 6.00 Build 0)  -->
<svg version="1.1" id="Shape_1_1_" xmlns="http://www.w3.org/2000/svg" xmlns:xlink="http://www.w3.org/1999/xlink" x="0px" y="0px"
	 viewBox="0 0 800 686" style="enable-background:new 0 0 800 686;" xml:space="preserve">
<style type="text/css">
	.st0{fill-rule:evenodd;clip-rule:evenodd;fill:#C23333;}
</style>
<g id="Shape_1">
	<g>
		<path class="st0" d="M396,435.3c11.2,0,20.4-9.1,20.4-20.4V221.5c0-11.2-9.1-20.4-20.4-20.4s-20.4,9.1-20.4,20.4V415
			C375.7,426.2,384.8,435.3,396,435.3z M401,494.3c-20.4,0-37,16.6-37,37c0,20.4,16.6,37,37,37c20.4,0,37-16.6,37-37
			C438,510.9,421.4,494.3,401,494.3z M798.2,606.6L475.2,60.6l-0.9-1.4C455.4,30.1,436,0,401,0h0c-36.4,0-55.5,30.5-73.9,60
			c-0.1,0.1-0.7,1.1-0.8,1.2L3.8,607.6C2,610.7,1,612.4,1,616c0,39.7,31.9,70,71.2,70h657.7c35.2,0,64.5-24.4,70.2-58.1v-17.6
			C799.5,609.1,798.9,607.9,798.2,606.6z M729.8,645.3H72.2c-14.9,0-27.7-9.7-30-24.4L361.6,80.6c15.8-25.3,26.2-40.4,39.4-40.4
			c12.8,0,25,19,39.1,40.8l319.7,539.7C757.5,635.5,744.7,645.3,729.8,645.3z"/>
	</g>
</g>
</svg>
