<?xml version="1.0" encoding="utf-8"?>
<!-- Generator: Adobe Illustrator 21.0.0, SVG Export Plug-In . SVG Version: 6.00 Build 0)  -->
<svg version="1.1" id="Shape_1_1_" xmlns="http://www.w3.org/2000/svg" xmlns:xlink="http://www.w3.org/1999/xlink" x="0px" y="0px"
	 viewBox="0 0 512 307" style="enable-background:new 0 0 512 307;" xml:space="preserve">
<style type="text/css">
	.st0{fill-rule:evenodd;clip-rule:evenodd;}
</style>
<g id="Shape_1">
	<g>
		<path class="st0" d="M506.9,138.9C502.9,133.2,408.5,0,255.5,0S8.1,133.2,4.1,138.9c-6.1,8.8-6.1,20.4,0,29.2
			c4,5.7,98.4,138.9,251.4,138.9s247.4-133.2,251.4-138.9C513,159.3,513,147.7,506.9,138.9z M255.5,281.4
			c-141.4,0-230.4-127.9-230.4-127.9s89-127.9,230.4-127.9s230.4,127.9,230.4,127.9S396.9,281.4,255.5,281.4z M255.5,51.2
			C199,51.2,153.1,97,153.1,153.5s45.8,102.3,102.4,102.3S357.9,210,357.9,153.5S312,51.2,255.5,51.2z M255.5,230.3
			c-42.3,0-76.8-34.4-76.8-76.8s34.4-76.8,76.8-76.8c42.3,0,76.8,34.4,76.8,76.8S297.8,230.3,255.5,230.3z"/>
	</g>
</g>
</svg>
